<?xml version="1.0" encoding="UTF-8"?>
<svg id="_Слой_2_копия2_" data-name="Слой 2 (копия2)" xmlns="http://www.w3.org/2000/svg" viewBox="0 0 2258 2258">
  <defs>
    <style>
      .cls-1 {
        opacity: .5;
      }

      .cls-2 {
        fill: #ff54dd;
      }

      .cls-3 {
        fill: #0bcaff;
      }
    </style>
  </defs>
  <g class="cls-1">
    <g>
      <path class="cls-2" d="m927.07,1062.63l7.57,1.24c.89-2.05,1.83-4.08,2.79-6.11l-8.73-2.36c-.57,2.4-1.11,4.81-1.63,7.22Z"/>
      <path class="cls-2" d="m950.27,992.34l24.05,11.79c1.99-2.09,4.02-4.13,6.09-6.13l-25.77-14.93c-1.5,3.07-2.96,6.16-4.37,9.28Z"/>
      <path class="cls-2" d="m831.78,779.43c3.52-3.02,7.08-5.99,10.7-8.9l-31.71-35.07c-7.13,3.02-14.2,6.15-21.21,9.37l42.22,34.59Z"/>
      <path class="cls-2" d="m935.34,1031.34c-.95,3-1.85,6.01-2.71,9.03l12.62,2.52c1.24-2.14,2.53-4.26,3.85-6.36l-13.76-5.2Z"/>
      <path class="cls-2" d="m1071.27,947.32c.27-.07.54-.15.81-.22,2.65-.68,5.33-1.3,8.03-1.87l-47.19-66.55c-3.06,2.8-6.09,5.64-9.05,8.55l47.4,60.09Z"/>
      <path class="cls-2" d="m923.6,1097l-2.05-.2c-.19,1.71-.36,3.42-.52,5.14l1.43.21c.35-1.72.74-3.44,1.14-5.16Z"/>
      <path class="cls-2" d="m940.35,1016.6l18.58,5.69c1.78-2.37,3.61-4.69,5.5-6.98l-20.57-7.91c-1.22,3.05-2.38,6.12-3.51,9.21Z"/>
      <path class="cls-2" d="m996.12,682.27l2.72,5.44c4.9-1.58,9.86-3.1,14.85-4.56l-.47-3.46c-5.71.8-11.42,1.66-17.11,2.58Z"/>
      <path class="cls-2" d="m954.04,704.36c4.35-1.84,8.74-3.63,13.18-5.37l-4.65-10.58c-5.67,1.16-11.33,2.38-16.97,3.66l8.44,12.3Z"/>
      <path class="cls-2" d="m910.41,725.37c3.89-2.11,7.81-4.18,11.78-6.2l-9.59-18.9c-6.16,1.67-12.29,3.41-18.38,5.22l16.19,19.88Z"/>
      <path class="cls-2" d="m1113.81,940.77c2.57-.14,5.16-.24,7.75-.29l-41.87-97.69c-3.25,2.08-6.47,4.21-9.66,6.4l43.77,91.58Z"/>
      <path class="cls-2" d="m868.62,751.05c4.11-2.84,8.28-5.62,12.5-8.33l-20.24-26.51c-6.1,2.11-12.16,4.29-18.18,6.54l25.92,28.31Z"/>
      <path class="cls-2" d="m996.08,917.89c-2.42,3.01-4.79,6.05-7.11,9.14l41,35.8c2.58-1.3,5.19-2.55,7.82-3.74l-41.72-41.21Z"/>
      <path class="cls-2" d="m978.81,941.28c-1.42,2.1-2.8,4.21-4.17,6.34l35.23,26.84c2.26-1.48,4.54-2.93,6.85-4.32l-36.12-31.48c-.6.87-1.2,1.74-1.8,2.62Z"/>
      <path class="cls-2" d="m1005.95,906.14l44.58,47.71c2.78-1.04,5.58-2.02,8.42-2.94l-45.38-53.16c-2.58,2.75-5.12,5.55-7.62,8.38Z"/>
      <path class="cls-2" d="m966.57,960.79c-1.8,3.08-3.55,6.19-5.25,9.33l31.08,17.18c2.08-1.71,4.2-3.38,6.35-5l-32.18-21.51Z"/>
      <path class="cls-2" d="m922.74,1087.22l3.35.32c.82-2.84,1.71-5.67,2.67-8.47l-4.65-.85c-.5,2.99-.95,5.99-1.37,9Z"/>
      <path class="cls-2" d="m1337.62,1113.12l233.45,5.34c-.8-6.13-1.72-12.17-2.74-18.15l-232,5.82c.46,2.33.9,4.66,1.29,7Z"/>
      <path class="cls-2" d="m1324.86,1066.44c1.01,2.49,1.95,4.99,2.81,7.49l217.85-56.92c-2.3-5.85-4.72-11.61-7.28-17.27l-213.38,66.7Z"/>
      <path class="cls-2" d="m1333.32,1092.91l227.79-27.03c-1.52-6.05-3.17-12.02-4.93-17.91l-224.67,38.31c.63,2.21,1.23,4.42,1.8,6.63Z"/>
      <path class="cls-2" d="m1316.27,1048.72c1.3,2.31,2.54,4.63,3.71,6.97l203.67-84.75c-3.13-5.55-6.41-10.99-9.82-16.33l-197.56,94.11Z"/>
      <path class="cls-2" d="m1299.52,1024.1l165.26-129.8c-3.4-3.33-6.88-6.6-10.43-9.81-.89-.81-1.79-1.59-2.69-2.39l-156.49,136.76c1.49,1.73,2.94,3.48,4.36,5.24Z"/>
      <path class="cls-2" d="m1153.25,942c2.57.29,5.15.62,7.73,1,.11.02.23.04.34.05l-24.97-129c-4.09,1.54-8.16,3.18-12.2,4.92l29.09,123.03Z"/>
      <path class="cls-2" d="m1133.92,940.57c2.64.09,5.29.22,7.94.4l-34.42-114.13c-.28.14-.56.28-.84.42-3.57,1.85-7.11,3.76-10.61,5.74l37.93,107.57Z"/>
      <path class="cls-2" d="m1306.6,1033.48c1.33,1.88,2.61,3.76,3.85,5.66l185.75-109.55c-3.91-5.06-7.97-10.01-12.17-14.85l-177.43,118.74Z"/>
      <path class="cls-2" d="m1340.14,1133.37l235.02,41.05c0-6.37-.19-12.72-.58-19.06-.04-.67-.09-1.33-.13-2l-235.01-27.24c.27,2.42.51,4.83.7,7.25Z"/>
      <path class="cls-2" d="m1224.61,796.47l-15.3,160.3c2.01.85,4.02,1.73,6.03,2.65l24.89-163.1c-5.21-.09-10.42-.04-15.62.15Z"/>
      <path class="cls-2" d="m1283.07,1005.93c1.69,1.66,3.34,3.34,4.95,5.04l141.57-146.94c-4.9-3.7-9.86-7.26-14.88-10.66l-131.64,152.57Z"/>
      <path class="cls-2" d="m1191.38,950.12c2.25.72,4.5,1.48,6.74,2.29l6.03-154.47c-4.71.51-9.41,1.16-14.09,1.91l1.31,150.28Z"/>
      <path class="cls-2" d="m1172.58,945.09c2.09.45,4.18.93,6.27,1.45l-9.87-142.49c-4.71,1.13-9.41,2.38-14.07,3.76l17.66,137.27Z"/>
      <path class="cls-2" d="m1225.3,964.25c2.11,1.09,4.21,2.21,6.3,3.37l46.52-168.22c-5.64-.82-11.28-1.48-16.92-1.98l-35.9,166.83Z"/>
      <path class="cls-2" d="m1269.42,993.55c2.08,1.74,4.12,3.5,6.11,5.29l118.32-158.59c-5.23-3.03-10.51-5.92-15.83-8.64l-108.6,161.94Z"/>
      <path class="cls-2" d="m1254.28,981.89c1.88,1.34,3.75,2.7,5.6,4.09l95.25-165.01c-5.83-2.45-11.71-4.72-17.62-6.81l-83.23,167.73Z"/>
      <path class="cls-2" d="m1240.35,972.71c1.87,1.14,3.74,2.32,5.58,3.52l70.27-168.79c-5.5-1.52-11.01-2.89-16.54-4.11l-59.31,169.38Z"/>
      <path class="cls-2" d="m1100.4,941.9l-45.51-81.67c-3.21,2.47-6.37,5-9.5,7.59l47.57,75.07c2.47-.37,4.95-.71,7.44-.99Z"/>
      <path class="cls-2" d="m1129.39,1436.65c-3.08,1.25-6.17,2.45-9.27,3.59-1.04.38-2.08.75-3.11,1.12l-31.58,143.8c5.67.29,11.35.53,17.04.71l26.93-149.22Z"/>
      <path class="cls-2" d="m1155.76,1585.86l12.36-168.06c-4.11,2.35-8.26,4.59-12.45,6.75l-17.46,161.69c5.85-.06,11.7-.19,17.55-.37Z"/>
      <path class="cls-2" d="m1208.96,1578.7l-6.25-183.47c-3.71,2.75-7.48,5.41-11.28,8v178.93c5.91-1.08,11.75-2.24,17.53-3.46Z"/>
      <path class="cls-2" d="m1313.12,1546.28l-56.45-200.44c-2.56,2.9-5.17,5.75-7.83,8.56l47.26,198.74c4.99-1.91,9.95-3.89,14.87-5.94.72-.3,1.44-.61,2.15-.91Z"/>
      <path class="cls-2" d="m1230.83,1372.09c-2.86,2.61-5.76,5.17-8.71,7.69l20.91,190.68c6.19-1.69,12.33-3.47,18.4-5.34l-30.61-193.02Z"/>
      <path class="cls-2" d="m1089.06,1449.8c-4.89,1.21-9.77,2.29-14.65,3.23l-42.18,127.67c5.64.66,11.3,1.25,16.97,1.79l39.86-132.69Z"/>
      <path class="cls-2" d="m942.36,1565.16l59.31-108.45c-4.93-.48-9.83-1.1-14.69-1.89l-62.19,106.06c5.84,1.49,11.7,2.92,17.58,4.28Z"/>
      <path class="cls-2" d="m1045.72,1456.97c-5.27.43-10.52.7-15.74.81l-51.32,114.9c5.74,1.05,11.5,2.05,17.27,2.98l49.79-118.69Z"/>
      <path class="cls-2" d="m1310.41,1269.16c-1.49,2.84-3.03,5.68-4.62,8.52l130.18,189.72c4.59-4.17,9.1-8.43,13.51-12.79l-139.08-185.44Z"/>
      <path class="cls-2" d="m1331.1,1218.42c-1.03,3.5-2.14,7-3.33,10.5l180.49,154.11c3.61-5.46,7.09-11.01,10.45-16.64l-187.61-147.97Z"/>
      <path class="cls-2" d="m1340.14,1170.08c-.26,3.26-.6,6.51-1,9.77l218.2,102.5c2.11-6.4,4.02-12.8,5.76-19.2l-222.96-93.06Z"/>
      <path class="cls-2" d="m1544.5,1316.1l-207.47-122.48c-.6,3.24-1.25,6.48-1.99,9.72l201.06,130.99c2.81-5.75,5.5-11.56,8.06-17.44.12-.26.22-.53.34-.79Z"/>
      <path class="cls-2" d="m1340.83,1156.35l229.88,71.96c1.07-6.45,1.94-12.89,2.63-19.33l-232.5-61.5c.06,2.96.05,5.91,0,8.87Z"/>
      <path class="cls-2" d="m1322.51,1243.04c-1.42,3.5-2.91,7-4.49,10.49l156.45,174.28c4.43-5.15,8.73-10.41,12.92-15.76l-164.88-169.01Z"/>
      <path class="cls-2" d="m1296.46,1293.29c-2.12,3.34-4.32,6.68-6.58,10.01l102.43,199.03c5.48-3.84,10.87-7.81,16.18-11.9l-112.02-197.13Z"/>
      <path class="cls-2" d="m958.21,1448.3c-4.38-1.28-8.72-2.59-13-3.96l-75.46,100.41c6.22,2.07,12.47,4.06,18.76,5.98l69.7-102.43Z"/>
      <path class="cls-2" d="m1278.02,1319.78c-2.34,3.09-4.74,6.17-7.21,9.25l75.71,201.34c5.24-2.78,10.42-5.66,15.53-8.65l-84.03-201.94Z"/>
      <path class="cls-2" d="m700.51,975.96c1.44-4.67,2.97-9.32,4.58-13.94l-152.02-45.35c-4.52,4.99-8.96,10.04-13.32,15.15l160.75,44.14Z"/>
      <path class="cls-2" d="m796.78,812.98c3.2-3.43,6.46-6.8,9.76-10.12l-48.33-42.74c-6.46,3.33-12.86,6.75-19.21,10.26l57.78,42.6Z"/>
      <path class="cls-2" d="m683.85,1069.27c.3-5.06.69-10.08,1.17-15.07l-215.39-22.78c-3.96,6.94-7.78,13.94-11.45,21l225.67,16.85Z"/>
      <path class="cls-2" d="m689.03,1024.06c.93-5.38,1.96-10.72,3.11-16.03l-181.24-39.9c-5.21,7.05-10.26,14.17-15.15,21.38l193.28,34.55Z"/>
      <path class="cls-2" d="m691.15,1163.06c-.99-5.14-1.9-10.35-2.74-15.61l-248.21,20.46c3.23,7.4,6.61,14.75,10.14,22.03l240.81-26.89Z"/>
      <path class="cls-2" d="m684.51,1117.18c-.49-4.91-.91-9.87-1.27-14.87l-246.27-4.75c-3.06,7.28-5.97,14.61-8.74,21.99l256.29-2.37Z"/>
      <path class="cls-2" d="m916.27,1434.08c-4.65-1.82-9.23-3.7-13.75-5.63l-86,96.45c6.11,2.53,12.26,4.99,18.45,7.38l81.3-98.19Z"/>
      <path class="cls-2" d="m739.41,889.18c2.56-4.28,5.22-8.53,7.96-12.76l-94.42-50.48c-6.31,4.72-12.53,9.53-18.65,14.43l105.12,48.8Z"/>
      <path class="cls-2" d="m716.94,932.25c2.22-4.96,4.55-9.9,6.98-14.8l-121.36-50.13c-5.81,5.24-11.52,10.57-17.13,15.98l131.51,48.95Z"/>
      <path class="cls-2" d="m685.98,802.61l80.35,46.74c2.95-3.9,5.97-7.79,9.08-11.66l-72.78-45.85c-4.72,2.97-9.41,5.98-14.06,9.05-.86.57-1.72,1.15-2.58,1.72Z"/>
      <path class="cls-2" d="m788.57,1353.64l-131.67,81.31c5.8,4.28,11.67,8.48,17.62,12.6l125.54-83.15c-3.93-3.5-7.76-7.09-11.5-10.76Z"/>
      <path class="cls-2" d="m727.29,1480.95l108.35-88.86c-3.99-2.71-7.9-5.49-11.74-8.33l-115.33,86.04c6.18,3.8,12.42,7.52,18.72,11.15Z"/>
      <path class="cls-2" d="m875.33,1415.64c-4.49-2.32-8.91-4.7-13.25-7.16l-99.19,91.74c5.86,2.97,11.76,5.88,17.7,8.7l94.74-93.29Z"/>
      <path class="cls-2" d="m622.58,1408l144.72-77.37c-3.04-3.63-6-7.33-8.88-11.1l-152.27,74.31c5.39,4.79,10.87,9.52,16.43,14.16Z"/>
      <path class="cls-2" d="m712.68,1237.93l-199.84,54.5c4.6,6.15,9.32,12.25,14.16,18.28l192.06-57.68c-2.22-4.95-4.35-9.98-6.37-15.1Z"/>
      <path class="cls-2" d="m573.54,1362.91l166.88-69.53c-2.66-4.3-5.24-8.68-7.72-13.13l-174.32,66.82c4.96,5.35,10.02,10.64,15.17,15.84Z"/>
      <path class="cls-2" d="m702.36,1208.43c-1.42-4.64-2.76-9.34-4.04-14.1l-224.69,39.13c3.96,6.75,8.06,13.44,12.29,20.06l216.44-45.09Z"/>
    </g>
    <g>
      <path class="cls-3" d="m1385.76,836.5c2.92,1.6,5.82,3.23,8.71,4.92l96.34-86.07c-5.6-2.79-11.23-5.51-16.91-8.17l-88.13,89.32Z"/>
      <path class="cls-3" d="m1302.43,804.71c2.91.66,5.81,1.36,8.7,2.11l70.9-95.8c-4.72-1.52-9.46-3.01-14.22-4.45l-65.38,98.13Z"/>
      <path class="cls-3" d="m1344.56,817.47c3.39,1.29,6.76,2.64,10.12,4.05l82.12-90.56c-4.69-1.91-9.41-3.77-14.14-5.59l-78.1,92.1Z"/>
      <path class="cls-3" d="m1531.3,777.1l-106.39,84.32c2.7,1.98,5.38,4.02,8.04,6.08l110.78-83.08c-4.12-2.48-8.26-4.92-12.43-7.33Z"/>
      <path class="cls-3" d="m1253.46,1350.49l-48.56-49.13c-1.32.54-2.63,1.07-3.95,1.58l48.16,52.23c1.46-1.55,2.91-3.1,4.35-4.68Z"/>
      <path class="cls-3" d="m1266.17,1335.85c1.45-1.74,2.88-3.49,4.29-5.23l-44.66-39.21c-1.06.58-2.12,1.14-3.19,1.7l43.56,42.74Z"/>
      <path class="cls-3" d="m1262.68,1266.24c-1.28,1.07-2.57,2.13-3.87,3.17l38.36,24.07c1.11-1.76,2.21-3.52,3.28-5.27l-37.77-21.97Z"/>
      <path class="cls-3" d="m1285.91,1310.26l-41.69-30.08c-1.44.98-2.89,1.94-4.35,2.88l42.68,31.87c1.14-1.56,2.26-3.11,3.37-4.67Z"/>
      <path class="cls-3" d="m1320.57,1189.35c-.62,1.47-1.27,2.94-1.93,4.4l17.87,6.23c.43-2.05.83-4.1,1.21-6.16l-17.15-4.47Z"/>
      <path class="cls-3" d="m1104.56,672.01l-12.86,164.28c2.64-1.54,5.3-3.03,7.98-4.5l15.67-160.02c-3.59.06-7.19.14-10.78.24Z"/>
      <path class="cls-3" d="m997.79,687.22l29.87,197.25c2.1-2,4.22-3.97,6.36-5.91l-23.95-195.16c-4.13,1.23-8.21,2.51-12.27,3.82Z"/>
      <path class="cls-3" d="m1057.12,859.39c2.28-1.73,4.57-3.44,6.9-5.11l-1.91-179.96c-4.56.36-9.11.77-13.65,1.2l8.67,183.86Z"/>
      <path class="cls-3" d="m1002.86,910.7c2.05-2.41,4.12-4.79,6.23-7.14l-50.05-202.19c-4.03,1.65-8.04,3.34-12,5.08l55.82,204.25Z"/>
      <path class="cls-3" d="m1170.81,804.39c3.08-.72,6.18-1.4,9.29-2.01l42.4-125.55c-4.39-.49-8.78-.95-13.18-1.37l-38.51,128.93Z"/>
      <path class="cls-3" d="m1214.26,797.8c3.23-.23,6.47-.42,9.72-.54l50.44-112.95c-4.21-.74-8.43-1.46-12.66-2.14l-47.5,115.63Z"/>
      <path class="cls-3" d="m1131.33,816.78c2.2-.88,4.4-1.73,6.62-2.55l31.33-141.63c-4.3-.2-8.61-.37-12.93-.51l-25.03,144.69Z"/>
      <path class="cls-3" d="m1314.17,692.35l-54.95,105.68c2.74.22,5.47.49,8.22.79l61.5-102.95c-4.91-1.22-9.83-2.39-14.76-3.52Z"/>
      <path class="cls-3" d="m942.41,1013.25c.6-1.6,1.22-3.19,1.85-4.78l-163.38-178.59c-1.71,2.04-3.41,4.08-5.08,6.16-.5.62-.99,1.23-1.48,1.85l168.09,175.36Z"/>
      <path class="cls-3" d="m1808.88,1069.7l-242.5,23.75c.48,2.61.95,5.24,1.39,7.88l246.92-19.2c-1.89-4.16-3.83-8.31-5.81-12.44Z"/>
      <path class="cls-3" d="m1555.31,1047.41c.84,2.81,1.66,5.65,2.45,8.5l222.69-38.65c-2.8-4.62-5.66-9.21-8.59-13.77l-216.56,43.92Z"/>
      <path class="cls-3" d="m1634.09,848.52l-141.85,77.21c1.71,2.14,3.4,4.3,5.07,6.48l147.47-74.64c-3.53-3.05-7.09-6.06-10.68-9.05Z"/>
      <path class="cls-3" d="m1517.75,962.19c1.41,2.32,2.79,4.66,4.14,7.01l173.15-63.64c-3.28-3.47-6.6-6.9-9.96-10.3l-167.32,66.93Z"/>
      <path class="cls-3" d="m1539.04,1003.1c.08.18.16.35.24.53,1.18,2.69,2.33,5.41,3.45,8.15l197.54-53.25c-3.15-4.1-6.35-8.17-9.6-12.21l-191.63,56.78Z"/>
      <path class="cls-3" d="m982.74,936.79c1.35-1.93,2.71-3.84,4.09-5.74l-77.17-206.22c-3.95,2.15-7.85,4.36-11.72,6.61l84.79,205.35Z"/>
      <path class="cls-3" d="m1490.06,1407.21c-1.7,2.23-3.43,4.46-5.17,6.66l75.92,49.03c3.02-1.93,6.04-3.88,9.03-5.86.91-.6,1.82-1.21,2.73-1.82l-82.51-48.02Z"/>
      <path class="cls-3" d="m920.57,1121.57l-238.08-37.08c-.1,4.04-.15,8.1-.14,12.19l238.21,30.2c-.03-1.76-.02-3.53,0-5.31Z"/>
      <path class="cls-3" d="m1341.02,1168.11l-12.4-1.96c-.36,1.34-.74,2.68-1.14,4.01l13.11,3.11c.16-1.72.31-3.44.43-5.16Z"/>
      <path class="cls-3" d="m1334.7,1124.27h5.26c-.17-1.43-.36-2.86-.55-4.3l-4.66.24c0,1.35-.02,2.7-.04,4.06Z"/>
      <path class="cls-3" d="m1460.39,891.07c2.46,2.34,4.89,4.71,7.28,7.12l128.73-78.92c-4.83-3.5-9.7-6.95-14.64-10.34l-121.37,82.14Z"/>
      <path class="cls-3" d="m1332.5,1148.23l9.08,1.14c-.02-1.57-.05-3.14-.09-4.71l-8.34-.74c-.2,1.44-.41,2.88-.65,4.31Z"/>
      <path class="cls-3" d="m1331.84,1218.47l-22.71-6.51c-.91,1.54-1.85,3.08-2.81,4.6l23.38,8.82c.75-2.31,1.46-4.61,2.14-6.92Z"/>
      <path class="cls-3" d="m1321.47,1247.45c.83-1.97,1.64-3.95,2.42-5.92l-28.12-9.8c-1,1.3-2.01,2.6-3.04,3.89l28.75,11.84Z"/>
      <path class="cls-3" d="m1313.1,1265.5l-33.57-14.92c-1.08,1.12-2.18,2.23-3.29,3.32l33.96,17.21c.99-1.87,1.95-3.74,2.9-5.61Z"/>
      <path class="cls-3" d="m1160.47,1313.59l45.58,80.1c1.44-1.09,2.87-2.19,4.3-3.3l-46.9-77.25c-1,.16-1.99.31-2.98.44Z"/>
      <path class="cls-3" d="m1185.14,1308.29c-1.19.35-2.39.68-3.58,1l46.83,66.03c1.65-1.48,3.3-2.98,4.93-4.49l-48.18-62.53Z"/>
      <path class="cls-3" d="m1302.13,1550c-2.7,1.07-5.41,2.12-8.13,3.15l7.15,15.3c3.21-.68,6.41-1.37,9.6-2.09l-8.62-16.36Z"/>
      <path class="cls-3" d="m1386.07,1505.77c-2.19,1.49-4.4,2.96-6.62,4.4l24.65,29.27c3.61-1.28,7.21-2.59,10.79-3.93l-28.82-29.74Z"/>
      <path class="cls-3" d="m966.25,962.76c1.13-1.97,2.29-3.92,3.46-5.87l-107.42-202.4c-3.23,2.31-6.43,4.67-9.59,7.06l113.55,201.21Z"/>
      <path class="cls-3" d="m1142.91,1315c-.96.02-1.93.03-2.89.03h-.06c-.52,0-1.06,0-1.58-.01l43.64,95.27c1.69-1.06,3.37-2.13,5.04-3.23l-44.14-92.06Z"/>
      <path class="cls-3" d="m1345.49,1530.13c-2.06,1.08-4.12,2.16-6.19,3.21l13.39,22.44c2.98-.84,5.95-1.69,8.92-2.56l-16.12-23.09Z"/>
      <path class="cls-3" d="m1256.09,1565.94c-2.93.87-5.88,1.72-8.85,2.55l2.18,9.16c3.33-.48,6.66-.99,9.99-1.51l-3.32-10.2Z"/>
      <path class="cls-3" d="m1083.88,1307.79c-1.28-.31-2.55-.62-3.82-.95l11.67,142.67c2.32-.6,4.63-1.23,6.95-1.88l-14.8-139.83Z"/>
      <path class="cls-3" d="m1122.09,1314.12c-1.29-.11-2.57-.24-3.86-.38l36.29,112.06c1.83-.92,3.65-1.87,5.47-2.82l-37.9-108.86Z"/>
      <path class="cls-3" d="m1102.44,1311.61c-1.17-.2-2.34-.4-3.51-.61l24.34,128.52c2.3-.87,4.61-1.76,6.9-2.68l-27.73-125.22Z"/>
      <path class="cls-3" d="m1064.28,1302.18c-1.12-.37-2.23-.76-3.34-1.14l-4.55,155.23c2.63-.33,5.26-.71,7.89-1.12v-152.97Z"/>
      <path class="cls-3" d="m1557.34,1280.02c-.93,2.9-1.91,5.79-2.92,8.69l154.85,48.18c3.75-4.21,7.44-8.47,11.08-12.77l-163.01-44.09Z"/>
      <path class="cls-3" d="m1574.17,1187.54c-.12,3.04-.29,6.08-.49,9.13l219.27,22.43c2.63-4.76,5.19-9.55,7.69-14.37l-226.47-17.18Z"/>
      <path class="cls-3" d="m1424.44,1476.52c-2.32,1.98-4.65,3.92-7,5.85l39.1,36.27c3.51-1.54,7-3.1,10.48-4.69l-42.58-37.43Z"/>
      <path class="cls-3" d="m1572.66,1139.46c.28,3.14.54,6.29.77,9.46l251.94,1.88c1.51-3.77,2.98-7.55,4.41-11.34h-257.12Z"/>
      <path class="cls-3" d="m1568.92,1234.33c-.62,3.39-1.3,6.78-2.03,10.17l186.75,36.87c2.66-3.73,5.29-7.48,7.86-11.25l-192.58-35.79Z"/>
      <path class="cls-3" d="m1459.22,1443.5c-2.31,2.44-4.64,4.85-7,7.23l56.18,42.8c3.61-1.92,7.21-3.87,10.79-5.85l-59.97-44.18Z"/>
      <path class="cls-3" d="m1539.9,1324.63c-1.28,2.78-2.6,5.55-3.94,8.32l125.59,52.47c4.1-3.78,8.14-7.6,12.14-11.47l-133.79-49.32Z"/>
      <path class="cls-3" d="m1517.39,1367.06c-1.67,2.76-3.36,5.51-5.09,8.23l99.22,52.13c4.71-3.6,9.38-7.26,13.99-10.96l-108.11-49.4Z"/>
      <path class="cls-3" d="m1217.32,1581.67l-1.33-5.33c-2.75.61-5.51,1.21-8.29,1.79l.9,4.42c2.91-.28,5.82-.57,8.72-.87Z"/>
      <path class="cls-3" d="m923.84,1084.67c.26-1.76.53-3.53.82-5.29l-224.61-104.38c-1.35,4.34-2.62,8.71-3.81,13.1l227.6,96.56Z"/>
      <path class="cls-3" d="m930.37,1180.97l-217.9,58.69c1.7,4.24,3.46,8.43,5.29,12.56l214.17-67.09c-.54-1.38-1.06-2.77-1.56-4.16Z"/>
      <path class="cls-3" d="m921.37,1140.91h-234.72c.45,3.11.92,6.21,1.42,9.28l233.92-3.83c-.24-1.81-.45-3.62-.63-5.45Z"/>
      <path class="cls-3" d="m924.88,1162.31l-228.03,29.53c.93,3.59,1.9,7.15,2.91,10.67l226.31-35.4c-.42-1.59-.82-3.19-1.19-4.8Z"/>
      <path class="cls-3" d="m921.44,1105.62c.14-1.65.29-3.31.45-4.96l-234.33-72.1c-.67,4.2-1.28,8.42-1.82,12.66l235.7,64.4Z"/>
      <path class="cls-3" d="m928.52,1059.5c.36-1.58.72-3.16,1.1-4.74l-208.87-132.45c-1.6,3.34-3.16,6.7-4.66,10.07l212.43,127.13Z"/>
      <path class="cls-3" d="m952.5,989.29c.98-2.1,1.98-4.2,3-6.28l-135.67-194c-3.63,3.34-7.18,6.76-10.7,10.22l143.37,190.06Z"/>
      <path class="cls-3" d="m933.97,1038.41c.61-2.08,1.23-4.15,1.88-6.21l-187.58-158.52c-2.26,3.44-4.45,6.89-6.59,10.36l192.29,154.37Z"/>
      <path class="cls-3" d="m991.84,1456.2l39.21-167.71c-1.01-.5-2.01-1.02-3.01-1.53l-46.05,167.7c3.27.58,6.55,1.1,9.85,1.54Z"/>
      <path class="cls-3" d="m999.88,1269.84c-.65-.47-1.32-.92-1.96-1.39l-91.23,162.59c3.01,1.25,6.06,2.46,9.12,3.66l84.07-164.86Z"/>
      <path class="cls-3" d="m938.14,1199.18l-203.47,86.24c2.04,3.52,4.13,6.99,6.28,10.41l199.87-91.5c-.92-1.71-1.82-3.42-2.68-5.15Z"/>
      <path class="cls-3" d="m1014.85,1279.62c-1.1-.66-2.2-1.32-3.29-1.99l-66.8,167.33c2.8.9,5.63,1.77,8.47,2.63l61.61-167.97Z"/>
      <path class="cls-3" d="m1029.97,1458.24l17.76-162.17c-1.28-.53-2.55-1.07-3.82-1.62l-23.12,163.84c3.05.04,6.12.02,9.18-.06Z"/>
      <path class="cls-3" d="m986.16,1259.25c-.97-.81-1.93-1.64-2.89-2.47l-114.91,156.09c2.78,1.5,5.59,2.97,8.44,4.42l109.36-158.04Z"/>
      <path class="cls-3" d="m972.95,1247.17c-.9-.9-1.78-1.82-2.66-2.73l-138.1,146.3c2.86,1.98,5.75,3.93,8.69,5.85l132.08-149.42Z"/>
      <path class="cls-3" d="m947.48,1215.61l-185.06,110.36c2.56,3.19,5.17,6.33,7.84,9.42l179.52-116.27c-.79-1.16-1.56-2.33-2.31-3.51Z"/>
      <path class="cls-3" d="m802.76,1367.88l158.33-133.71c-.92-1.11-1.83-2.23-2.73-3.35l-163.35,130.14c2.54,2.35,5.13,4.65,7.75,6.93Z"/>
    </g>
    <g>
      <path class="cls-2" d="m1134.53,1051.32l12.06-38.55c-1.18-1.08-2.38-2.11-3.58-3.11l-12.9,41.23c1.49.07,2.96.22,4.41.43Z"/>
      <path class="cls-2" d="m1140.75,1052.66l13.97-31.62c-1.06-1.19-2.13-2.36-3.21-3.48l-15.06,34.09c1.45.27,2.88.61,4.3,1.02Z"/>
      <path class="cls-2" d="m1187.03,1085.07l-7.98,3.26c.61,1.3,1.18,2.63,1.73,3.98l7.21-2.94c-.3-1.44-.62-2.87-.95-4.3Z"/>
      <path class="cls-2" d="m1146.36,1054.64l14.56-26.01c-.96-1.27-1.92-2.51-2.9-3.71l-15.79,28.19c1.39.45,2.77.96,4.12,1.53Z"/>
      <path class="cls-2" d="m1163.15,1031.7l-14.23,24.11c1.3.63,2.57,1.32,3.82,2.07l13.1-22.2c-.89-1.35-1.79-2.68-2.7-3.97Z"/>
      <path class="cls-2" d="m1163.14,1065.79l12.36-13.03c-.67-1.39-1.36-2.77-2.07-4.13l-13.54,14.28c1.11.91,2.19,1.88,3.25,2.88Z"/>
      <path class="cls-2" d="m1184.27,1074.99l-9.56,5.22c.75,1.23,1.47,2.48,2.16,3.77l8.66-4.73c-.4-1.43-.82-2.85-1.26-4.26Z"/>
      <path class="cls-2" d="m1168.8,1040.38l-14.45,18.49c1.21.78,2.4,1.61,3.57,2.49l13.23-16.93c-.77-1.37-1.55-2.72-2.35-4.05Z"/>
      <path class="cls-2" d="m1168.22,1071.18l11.46-9.03c-.57-1.4-1.15-2.78-1.75-4.15l-12.61,9.94c1,1.04,1.97,2.12,2.91,3.24Z"/>
      <path class="cls-2" d="m1108.37,1054.97c1.4-.62,2.83-1.18,4.28-1.66l-2.51-59.66c-1.46-.25-2.91-.43-4.37-.55l2.61,61.88Z"/>
      <path class="cls-2" d="m1115.83,994.92l-1.36,57.82c2.83-.83,5.74-1.4,8.71-1.69l6.64-50.4c-1.36-.74-2.73-1.43-4.11-2.07l-6.84,51.96,1.27-54.25c-1.43-.51-2.87-.97-4.31-1.37Z"/>
      <path class="cls-2" d="m1095.87,993.21l5.77,65.35c1.36-.85,2.74-1.64,4.15-2.36l-5.58-63.28c-1.45.03-2.89.13-4.33.29Z"/>
      <path class="cls-2" d="m1145.94,940.55l-.16,3.88c1.93.41,3.84.86,5.74,1.35l.19-4.67c-1.93-.21-3.85-.39-5.77-.55Z"/>
      <path class="cls-2" d="m1175.52,954.48c1.79.85,3.57,1.75,5.32,2.68l2.4-10.21c-1.87-.51-3.73-1-5.6-1.45l-2.11,8.98Z"/>
      <path class="cls-2" d="m1188.37,961.52c1.64,1.02,3.26,2.09,4.86,3.19l6.72-12.38c-1.84-.68-3.68-1.33-5.53-1.95l-6.05,11.14Z"/>
      <path class="cls-2" d="m1160.79,948.53c1.89.63,3.76,1.31,5.61,2.02l.75-7.27c-1.91-.35-3.81-.66-5.72-.95l-.64,6.2Z"/>
      <path class="cls-2" d="m1084.4,995.73l12.58,66.09c1.27-.98,2.57-1.91,3.89-2.77l-12.27-64.47c-1.42.36-2.82.75-4.2,1.15Z"/>
      <path class="cls-2" d="m1190.88,1116.34l-4.13-.54c.18,1.46.32,2.94.43,4.43l3.64.48c.04-1.46.06-2.92.06-4.37Z"/>
      <path class="cls-2" d="m1172.89,1077.37l10.11-6.31c-.48-1.41-.97-2.8-1.49-4.19l-11.16,6.97c.87,1.14,1.72,2.32,2.54,3.53Z"/>
      <path class="cls-2" d="m1323.31,1061.05l-64.65,16.84c.31,1.92.59,3.84.85,5.76l66.12-17.23c-.73-1.8-1.5-3.59-2.32-5.38Z"/>
      <path class="cls-2" d="m1256.13,1159.53l69.45,19.04c.64-1.83,1.24-3.66,1.82-5.5l-70.06-19.2c-.38,1.9-.79,3.79-1.22,5.67Z"/>
      <path class="cls-2" d="m1249.02,1040.47c.66,1.83,1.3,3.68,1.91,5.54l46.81-24.93c-1.26-1.51-2.55-3.01-3.87-4.5l-44.86,23.89Z"/>
      <path class="cls-2" d="m1196.07,1250.63c-1.45.88-2.91,1.72-4.39,2.53l26.91,42.94c.92-.46,1.85-.92,2.77-1.39.59-.3,1.17-.62,1.76-.93l-27.04-43.15Z"/>
      <path class="cls-2" d="m1335.46,1122.6c.02-1.93,0-3.86-.04-5.79h-74.09c-.04,1.93-.11,3.86-.2,5.79h74.33Z"/>
      <path class="cls-2" d="m1242.03,1023.77c.84,1.76,1.66,3.54,2.45,5.35l36.96-25.5c-1.42-1.37-2.86-2.72-4.32-4.05l-35.08,24.21Z"/>
      <path class="cls-2" d="m1132.69,1256.87c-1.86-.92-3.71-1.94-5.56-3.04l9.05,61.86c1.27.03,2.56.06,3.85.06h0c.42,0,.84,0,1.27-.01l-8.61-58.87Z"/>
      <path class="cls-2" d="m1254.78,1059.14c.48,1.88.94,3.78,1.37,5.68l56.96-22.68c-1.04-1.66-2.12-3.31-3.22-4.95l-55.12,21.94Z"/>
      <path class="cls-2" d="m1190.37,1105.54l-5.3.55c.32,1.41.61,2.83.87,4.28l4.74-.49c-.08-1.45-.18-2.89-.31-4.33Z"/>
      <path class="cls-2" d="m1233.73,1008.4c1.02,1.68,2.01,3.38,2.98,5.1l27.61-24.8c-1.54-1.22-3.09-2.41-4.66-3.59l-25.93,23.29Z"/>
      <path class="cls-2" d="m1135.34,1003.96l-11.38,47.02c1.25-.1,2.52-.16,3.79-.16.24,0,.47,0,.71.01l10.7-44.19c-1.27-.94-2.54-1.83-3.82-2.67Z"/>
      <path class="cls-2" d="m1182.47,1096.86c.47,1.36.9,2.75,1.31,4.15l5.94-1.42c-.19-1.44-.4-2.88-.64-4.31l-6.61,1.58Z"/>
      <path class="cls-2" d="m1200.64,970.21c1.51,1.21,2.99,2.45,4.46,3.73l10.61-15.09c-1.79-.82-3.59-1.62-5.4-2.39l-9.67,13.76Z"/>
      <path class="cls-2" d="m1223.87,994.01c1.2,1.56,2.39,3.16,3.54,4.78l19.26-22.8c-1.63-1.07-3.27-2.11-4.93-3.14l-17.87,21.16Z"/>
      <path class="cls-2" d="m1212.53,980.94c1.35,1.38,2.68,2.8,3.99,4.24l15.43-18.1c-1.73-.96-3.46-1.9-5.21-2.82l-14.21,16.67Z"/>
      <path class="cls-2" d="m1065.77,1290.07l21.11-78.58c-1.21-2.09-2.39-4.23-3.52-6.43l-21.88,81.46c1.41,1.22,2.84,2.4,4.29,3.56Z"/>
      <path class="cls-2" d="m1145.76,1261.84c-1.85-.49-3.72-1.08-5.59-1.76l12.43,55.13c1.69-.14,3.38-.31,5.08-.51l-11.91-52.86Z"/>
      <path class="cls-2" d="m1092.84,1065.35c1.18-1.1,2.39-2.14,3.64-3.13l-17.91-64.64c-1.39.48-2.75.98-4.09,1.49l18.36,66.28Z"/>
      <path class="cls-2" d="m1121.56,1250.23c-1.6-1.12-3.2-2.3-4.77-3.54-.2-.16-.39-.32-.59-.48l4.88,68.34c1.69.24,3.4.44,5.12.6l-4.64-64.92Z"/>
      <path class="cls-2" d="m1183.37,1257.2c-1.55.68-3.12,1.32-4.71,1.92l23.03,44.41c1.58-.61,3.15-1.24,4.72-1.9l-23.04-44.44Z"/>
      <path class="cls-2" d="m1170.61,1261.83c-.33.1-.66.2-.99.3-1.31.37-2.64.67-4.01.9l19.77,46.02c1.63-.47,3.25-.96,4.88-1.48l-19.65-45.74Z"/>
      <path class="cls-2" d="m1110.68,1241.44c-1.69-1.56-3.37-3.2-5.03-4.93l-.49,74.53c1.67.5,3.35.97,5.06,1.4l.46-71Z"/>
      <path class="cls-2" d="m1093.72,1222.1c-1.4-1.96-2.77-4-4.1-6.09l-13.83,81.31c1.53.99,3.08,1.94,4.65,2.87l13.28-78.08Z"/>
      <path class="cls-2" d="m1101.79,1232.3c-1.55-1.77-3.08-3.62-4.58-5.54l-7.17,78.49c1.61.76,3.24,1.47,4.89,2.15l6.86-75.11Z"/>
      <path class="cls-2" d="m1229.6,1219.55c-1.15,1.57-2.34,3.1-3.54,4.6l42.01,38.46c1.45-1.29,2.88-2.6,4.29-3.92l-42.75-39.14Z"/>
      <path class="cls-2" d="m1260.11,1135.82c-.21,1.92-.45,3.84-.71,5.75l73.44,9.25c.34-1.9.64-3.81.92-5.72l-73.65-9.28Z"/>
      <path class="cls-2" d="m1207.77,1242.46c-1.32,1.06-2.67,2.08-4.03,3.07l31,41.69c1.45-.88,2.89-1.77,4.32-2.68l-31.29-42.08Z"/>
      <path class="cls-2" d="m1252.7,1172.45c-.57,1.86-1.15,3.7-1.77,5.53l63.69,25.7c.9-1.72,1.78-3.44,2.63-5.18l-64.55-26.05Z"/>
      <path class="cls-2" d="m1260.87,1097.36c.13,1.93.23,3.86.31,5.8l72.24-9.12c-.29-1.9-.62-3.81-.98-5.71l-71.57,9.03Z"/>
      <path class="cls-2" d="m1246.34,1189.96c-.11.26-.22.53-.33.79-.66,1.52-1.35,3.02-2.05,4.5l56.57,31.25c1.13-1.58,2.24-3.18,3.31-4.78l-57.5-31.76Z"/>
      <path class="cls-2" d="m1218.51,1232.69c-.91.94-1.83,1.86-2.76,2.76-.28.27-.57.53-.85.8l37.13,39.39c1.37-1.01,2.72-2.03,4.06-3.07l-37.59-39.87Z"/>
      <path class="cls-2" d="m1238.65,1205.53c-.96,1.7-1.95,3.37-2.96,5l49.15,35.44c1.3-1.44,2.59-2.89,3.85-4.36l-50.04-36.08Z"/>
      <path class="cls-2" d="m1081.26,1200.75c-1.01-2.16-1.98-4.37-2.91-6.63l-30.06,79.42c1.26,1.4,2.54,2.79,3.85,4.14l29.12-76.92Z"/>
      <path class="cls-2" d="m1158.4,1263.59c-1.79-.01-3.61-.14-5.46-.37l16.45,49.66c1.66-.32,3.33-.66,4.99-1.03l-15.99-48.26Z"/>
      <path class="cls-2" d="m1074.61,1092.6c.57-1.42,1.17-2.82,1.81-4.18l-54.6-47.61c-.82,1.21-1.62,2.44-2.39,3.68l55.19,48.12Z"/>
      <path class="cls-2" d="m1072.39,1098.85c.45-1.42.93-2.83,1.44-4.21l-61.44-37.31c-.63,1.31-1.24,2.64-1.83,3.97l61.83,37.55Z"/>
      <path class="cls-2" d="m1029.84,1030.29l47.97,55.26c.71-1.39,1.45-2.74,2.22-4.06l-47.28-54.46c-1,1.07-1.97,2.16-2.92,3.26Z"/>
      <path class="cls-2" d="m1068.89,1114.75c.19-1.45.41-2.88.66-4.3l-69.23-15.78c-.28,1.42-.54,2.85-.78,4.27l69.36,15.81Z"/>
      <path class="cls-2" d="m1069.98,1108.15c.3-1.46.63-2.89.99-4.32l-65.41-29.44c-.46,1.38-.89,2.77-1.31,4.17l65.73,29.59Z"/>
      <path class="cls-2" d="m1089.15,1069.06c1.08-1.18,2.19-2.3,3.33-3.38l-25.4-63.49c-1.33.61-2.63,1.25-3.92,1.9l25.99,64.97Z"/>
      <path class="cls-2" d="m1080.62,1080.5c.83-1.37,1.69-2.7,2.59-3.99l-38.89-60.25c-1.14.92-2.26,1.86-3.35,2.81l39.66,61.43Z"/>
      <path class="cls-2" d="m1084.39,1074.86c.96-1.3,1.95-2.56,2.98-3.77l-31.27-63.05c-1.25.76-2.49,1.53-3.69,2.32l31.99,64.5Z"/>
      <path class="cls-2" d="m1070.9,1169.65c-.36-1.75-.69-3.52-1-5.31l-53.96,58.15c.63,1.44,1.28,2.87,1.94,4.3l53.02-57.13Z"/>
      <path class="cls-2" d="m1076.93,1190.49c-.8-2.14-1.57-4.31-2.28-6.53l-38.95,73.78c1.09,1.54,2.19,3.06,3.32,4.56l37.9-71.8Z"/>
      <path class="cls-2" d="m1069.11,1159.01c-.22-1.72-.42-3.45-.58-5.2l-59.6,50.62c.5,1.47,1.01,2.93,1.54,4.39l58.64-49.8Z"/>
      <path class="cls-2" d="m1068.19,1122.5c.07-1.46.18-2.9.31-4.34l-71.16-.98c-.11,1.45-.19,2.89-.26,4.34l71.11.98Z"/>
      <path class="cls-2" d="m1073.04,1178.54c-.52-1.88-1-3.79-1.45-5.72l-45.57,69.71c.8,1.4,1.62,2.8,2.46,4.18l44.56-68.17Z"/>
      <path class="cls-2" d="m1068.09,1129.57c-.01-.68-.03-1.37-.03-2.05,0-.8.01-1.59.03-2.39l-71.16,14.64c.05,1.47.11,2.93.19,4.39l70.97-14.6Z"/>
      <path class="cls-2" d="m1067.92,1138.8c.01-1.49.05-2.99.11-4.5h.26s-.02-.32-.02-.32l-69.43,27.93c.2,1.47.42,2.94.66,4.42l68.43-27.52Z"/>
      <path class="cls-2" d="m1068.14,1148.59c-.09-1.65-.15-3.31-.19-4.99l-64.96,40.29c.35,1.48.72,2.95,1.11,4.42l64.04-39.72Z"/>
    </g>
    <g>
      <path class="cls-3" d="m1087.3,1183.79l-10.54,8.19c.67,1.74,1.37,3.46,2.1,5.15l10.86-10.62c-.83-.88-1.63-1.79-2.42-2.72Z"/>
      <path class="cls-3" d="m1077.87,1169.55l-6.85,3.92c.35,1.46.71,2.91,1.1,4.35l7.36-5.3c-.55-.97-1.09-1.96-1.6-2.97Z"/>
      <path class="cls-3" d="m1110.81,1201.04l-14.9,25.18c1.48,1.94,2.99,3.8,4.52,5.59l14-29.54c-1.22-.36-2.42-.78-3.62-1.23Z"/>
      <path class="cls-3" d="m1093.09,1189.85l-12.44,11.26c.72,1.54,1.47,3.04,2.24,4.53l12.71-13.59c-.85-.7-1.69-1.44-2.52-2.2Z"/>
      <path class="cls-3" d="m1069.79,1167.69l5.73-3.11c-.45-1.03-.87-2.07-1.28-3.13l-5.2,2.01c.23,1.42.48,2.83.75,4.22Z"/>
      <path class="cls-3" d="m1082.09,1176.79l-8.25,6.87c.43,1.36.88,2.7,1.34,4.03l8.53-8.53c-.55-.78-1.09-1.57-1.62-2.37Z"/>
      <path class="cls-3" d="m1069.97,1146.8c-.23-1.15-.44-2.31-.64-3.47l-2.11.12c.03,1.32.07,2.63.14,3.94l2.61-.59Z"/>
      <path class="cls-3" d="m1067.75,1153.12c.1,1.13.21,2.26.33,3.38l3.97-1.4c-.29-.98-.57-1.96-.84-2.96l-3.47.98Z"/>
      <path class="cls-3" d="m1098.54,1194.32l-13.27,15.73c.69,1.22,1.38,2.42,2.09,3.6l13.95-17.44c-.94-.6-1.86-1.23-2.77-1.89Z"/>
      <path class="cls-3" d="m1076.87,998.98c1.29-.47,2.59-.93,3.91-1.36l-22.42-47.2c-2.42.8-4.82,1.64-7.2,2.52l25.71,46.04Z"/>
      <path class="cls-3" d="m1051.59,1012.02c1.33-.92,2.67-1.81,4.04-2.67l-32.94-43.31c-2.09,1.16-4.16,2.37-6.21,3.61l35.1,42.37Z"/>
      <path class="cls-3" d="m1089.14,995.18c.12-.03.23-.06.35-.09.89-.22,1.78-.41,2.68-.58l-18.4-48.53c-2.42.6-4.83,1.24-7.22,1.92l22.58,47.28Z"/>
      <path class="cls-3" d="m1116.82,1202.92l-13.3,32.37c1.37,1.48,2.75,2.91,4.14,4.28l12.11-36.04c-.99-.17-1.97-.38-2.95-.61Z"/>
      <path class="cls-3" d="m1104.03,1197.85l-14.19,19.78c1.15,1.77,2.33,3.48,3.52,5.15l13.87-23.28c-1.08-.51-2.15-1.06-3.2-1.65Z"/>
      <path class="cls-3" d="m1039.97,1021.25c1.06-.97,2.14-1.91,3.23-2.83l-37.56-41.73c-1.89,1.31-3.76,2.65-5.61,4.02l39.94,40.54Z"/>
      <path class="cls-3" d="m1104.39,940.77c-1.87.18-3.73.4-5.58.62l14.29,53.58c1.51.34,3.02.75,4.52,1.23l-11.11-55.53c-.71.03-1.41.06-2.13.1Z"/>
      <path class="cls-3" d="m1101.73,993.63c1.17,0,2.35.06,3.53.15l-16.57-50.9c-2,.34-3.99.7-5.96,1.1l19.01,49.64Z"/>
      <path class="cls-3" d="m1190.12,1114.94c.02,1.05.02,2.11,0,3.16l71.07-25.66c-.22-2.43-.48-4.86-.77-7.27l-70.3,29.77Z"/>
      <path class="cls-3" d="m1189.7,1127.34l72.36-12.65c.03-2.11.02-4.22-.01-6.33l-72.11,15.69c-.06,1.1-.14,2.19-.24,3.28Z"/>
      <path class="cls-3" d="m1189.67,1105.94c.1,1.22.19,2.44.26,3.66l68.06-39.54c-.54-2.67-1.13-5.36-1.79-8.04l-66.54,43.93Z"/>
      <path class="cls-3" d="m1188.51,1096.29c.24,1.51.45,3.03.63,4.55l63.28-52.28c-.87-2.71-1.79-5.41-2.78-8.11l-61.13,55.84Z"/>
      <path class="cls-3" d="m1182.69,1157.7l-.05-.02-.17.48,61.23,39.26c.94-1.95,1.85-3.93,2.72-5.93l-62.61-36.8c-.36,1.01-.73,2.01-1.13,3.01Z"/>
      <path class="cls-3" d="m1159.04,1192.8c-.79.62-1.58,1.23-2.39,1.8l12.33,68.44c.28-.07.56-.14.84-.22,1.38-.39,2.73-.81,4.08-1.25l-14.86-68.77Z"/>
      <path class="cls-3" d="m1186.47,1085.78c.26,1.13.52,2.27.75,3.41l57.37-61.11c-1.16-2.57-2.37-5.13-3.66-7.66l-54.47,65.36Z"/>
      <path class="cls-3" d="m1174.73,1174.79c-.39.64-.79,1.26-1.19,1.88l40.79,61.19c1.72-1.58,3.39-3.21,5-4.89l-44.61-58.18Z"/>
      <path class="cls-3" d="m1163.55,1033.5c1,1.45,1.98,2.93,2.94,4.44l16.78-80.16c-2.24-1.27-4.53-2.47-6.87-3.62l-12.85,79.35Z"/>
      <path class="cls-3" d="m1156.12,1023.75c.89,1.05,1.77,2.13,2.63,3.23l8.68-76.82c-2.05-.82-4.15-1.59-6.28-2.31l-5.03,75.89Z"/>
      <path class="cls-3" d="m1124.7,998.9c1.31.59,2.61,1.23,3.9,1.91l-7.53-60.21c-2.04-.08-4.12-.12-6.21-.12l9.83,58.42Z"/>
      <path class="cls-3" d="m1146.57,1013.72c1.02.94,2.03,1.91,3.04,2.92l2.47-71.51c-1.81-.47-3.64-.92-5.5-1.32v69.91Z"/>
      <path class="cls-3" d="m1183.66,1075.33c.34,1.12.67,2.24.99,3.36l50.34-69.05c-1.44-2.41-2.94-4.8-4.51-7.14l-46.82,72.83Z"/>
      <path class="cls-3" d="m1136.57,1005.67c1.11.77,2.22,1.57,3.32,2.42l-2.35-65.94c-2.26-.34-4.54-.63-6.87-.87l5.91,64.39Z"/>
      <path class="cls-3" d="m1170.08,1043.9c.82,1.43,1.62,2.88,2.4,4.36l24.41-81.57c-2.12-1.58-4.28-3.11-6.51-4.57l-20.29,81.78Z"/>
      <path class="cls-3" d="m1180.06,1064.92c.52,1.36,1.03,2.73,1.52,4.11l41.9-76.18c-1.98-2.53-4.05-5.01-6.2-7.41l-37.22,79.49Z"/>
      <path class="cls-3" d="m1175.5,1054.3c.71,1.49,1.39,3,2.05,4.53l33.06-80.38c-2.22-2.17-4.51-4.28-6.89-6.31l-28.22,82.16Z"/>
      <path class="cls-3" d="m1064.77,1004.22c1.12-.56,2.26-1.11,3.4-1.64l-28.86-44.83c-2.2.98-4.38,1.98-6.55,3.03l32,43.43Z"/>
      <path class="cls-3" d="m1161.59,1264.22l-7.29-68.04c-.78.5-1.58.98-2.38,1.43l4.2,66.63c1.85.1,3.67.09,5.46-.03Z"/>
      <path class="cls-3" d="m1143.83,1201.37c-1.1.4-2.21.76-3.33,1.08l-4.28,56.87c2.06.88,4.11,1.66,6.15,2.31l1.46-60.25Z"/>
      <path class="cls-3" d="m1132.04,1204.03c-1.08.1-2.17.15-3.26.18l-11.18,44.02c1.35,1.04,2.71,2.03,4.07,2.97l10.37-47.16Z"/>
      <path class="cls-3" d="m1149.62,1198.86c-1.03.52-2.07,1.01-3.13,1.46v62.46c1.9.47,3.79.83,5.66,1.08l-2.53-65.01Z"/>
      <path class="cls-3" d="m1137.36,1203.21c-.91.19-1.82.36-2.74.5l-7.9,50.73c2.07,1.24,4.15,2.36,6.22,3.37l4.42-54.6Z"/>
      <path class="cls-3" d="m1095.36,1306.87c-1.7-.69-3.38-1.43-5.06-2.21l-1.66,5.02c2.06.46,4.14.89,6.22,1.3l.49-4.12Z"/>
      <path class="cls-3" d="m1110.84,1311.87c-1.98-.48-3.95-1.02-5.91-1.61l-.57,2.41c2.13.34,4.28.64,6.42.93l.06-1.73Z"/>
      <path class="cls-3" d="m1122.92,1203.97l-13.01,37.75c1.53,1.42,3.06,2.77,4.59,4.04l11.45-41.57c-1.01-.04-2.02-.11-3.03-.22Z"/>
      <path class="cls-3" d="m1167.94,1184.18c-.77.9-1.56,1.79-2.37,2.64l25,67.77c1.64-.86,3.26-1.74,4.85-2.67l-27.48-67.74Z"/>
      <path class="cls-3" d="m1185.93,1148.11c-.3,1.05-.61,2.1-.94,3.14l66.34,27.6c.51-1.5,1.01-3,1.48-4.52l-66.87-26.22Z"/>
      <path class="cls-3" d="m1162.93,1189.44c-.63.59-1.26,1.16-1.91,1.72l18.24,68.52c1.8-.69,3.56-1.42,5.3-2.19l-21.62-68.05Z"/>
      <path class="cls-3" d="m1181.11,1161.87c-.37.94-.75,1.86-1.14,2.77l54.9,48.59c1.22-1.89,2.4-3.82,3.53-5.79l-57.3-45.58Z"/>
      <path class="cls-3" d="m1188.67,1135.73l71.96,1.5c.22-1.87.4-3.75.57-5.63l-72.13,1.44c-.12.9-.26,1.79-.4,2.69Z"/>
      <path class="cls-3" d="m1187.87,1140.18c-.2.98-.41,1.95-.64,2.92l69.48,16.9c.48-2.09.93-4.19,1.35-6.3l-70.19-13.52Z"/>
      <path class="cls-3" d="m1081.32,1299.99c-1.45-.83-2.89-1.7-4.32-2.6l-3.44,8.47c2.07.59,4.15,1.16,6.24,1.71l1.52-7.58Z"/>
      <path class="cls-3" d="m1178.48,1167.91c-.4.83-.81,1.64-1.23,2.45l47.02,57.19c1.35-1.58,2.65-3.19,3.93-4.84l-49.72-54.8Z"/>
      <path class="cls-3" d="m1171.32,1179.89c-.6.83-1.22,1.64-1.86,2.43l33.14,64.97c1.73-1.21,3.43-2.47,5.08-3.77l-36.36-63.63Z"/>
      <path class="cls-3" d="m1057.67,1282.41c-1.37-1.27-2.72-2.57-4.05-3.91l-11.89,15.9c2.37,1.04,4.75,2.04,7.16,3.01l8.78-15Z"/>
      <path class="cls-3" d="m1000.32,1098.36c.23-1.32.48-2.63.74-3.93l-70.81-21.55c-.88,2.33-1.72,4.68-2.51,7.04l72.58,18.44Z"/>
      <path class="cls-3" d="m997.49,1132.16l-77.55-1.83c.08,2.13.19,4.26.35,6.37h77.26c-.03-1.52-.05-3.03-.05-4.54Z"/>
      <path class="cls-3" d="m998.01,1117.16c.1-1.4.22-2.79.35-4.18l-76.4-11.94c-.52,2.45-.99,4.91-1.41,7.38l77.46,8.74Z"/>
      <path class="cls-3" d="m998.72,1155.05c-.13-1.22-.25-2.44-.36-3.66l-75.15,6.68c.43,2.12.91,4.22,1.42,6.31l74.09-9.34Z"/>
      <path class="cls-3" d="m1010.49,1063.58c.66-1.54,1.34-3.07,2.05-4.57l-56.17-34.24c-1.41,1.93-2.78,3.88-4.12,5.85l58.24,32.97Z"/>
      <path class="cls-3" d="m1004.81,1079.32c.37-1.25.76-2.49,1.17-3.72l-64.38-27.51c-1.28,2.36-2.52,4.75-3.7,7.16l66.92,24.07Z"/>
      <path class="cls-3" d="m967.12,1011.29l52,35.43c.71-1.17,1.43-2.32,2.18-3.46l-48.94-37.79c-1.79,1.91-3.53,3.85-5.24,5.82Z"/>
      <path class="cls-3" d="m1001.64,1174.48c-.31-1.58-.6-3.16-.87-4.74l-69.12,16.68c.78,1.96,1.6,3.9,2.45,5.83l67.54-17.77Z"/>
      <path class="cls-3" d="m1069.43,1292.19c-1.52-1.13-3.03-2.29-4.52-3.49l-6.65,12.25c2.14.76,4.29,1.5,6.46,2.21l4.7-10.97Z"/>
      <path class="cls-3" d="m1045.41,1269.58c-1.07-1.26-2.12-2.54-3.17-3.85l-18.05,20.14c2.23,1.2,4.47,2.37,6.74,3.5l14.48-19.79Z"/>
      <path class="cls-3" d="m1035.73,1257.04c-1.12-1.59-2.21-3.21-3.28-4.86l-23.92,24.47c1.96,1.26,3.96,2.49,5.97,3.7l21.24-23.31Z"/>
      <path class="cls-3" d="m1028.76,1033.06c.93-1.14,1.88-2.25,2.85-3.34l-42.48-40.3c-1.76,1.51-3.5,3.05-5.22,4.62l44.85,39.02Z"/>
      <path class="cls-3" d="m1018.19,1226.26c-.66-1.44-1.31-2.89-1.94-4.36l-41.48,28.08c2.16,2.1,4.38,4.15,6.64,6.16l36.78-29.89Z"/>
      <path class="cls-3" d="m1011.37,1209.62c-.65-1.79-1.28-3.59-1.89-5.4l-50.63,28.37c1.63,2.01,3.31,4,5.04,5.97l47.47-28.95Z"/>
      <path class="cls-3" d="m1026.52,1242.49c-.75-1.31-1.48-2.63-2.2-3.96l-32.16,26.54c1.73,1.34,3.48,2.67,5.26,3.97l29.1-26.55Z"/>
      <path class="cls-3" d="m1005.66,1191.7c-.41-1.5-.81-3.01-1.2-4.52l-60.72,23.79c1.21,2.03,2.46,4.03,3.75,6.03l58.16-25.29Z"/>
    </g>
  </g>
  <g>
    <g>
      <polygon class="cls-2" points="903.43 1032.98 901.65 1032.98 901.65 1096.47 895.92 1096.47 895.92 1114.76 909.13 1114.76 909.13 1096.47 903.43 1096.47 903.43 1032.98"/>
      <polygon class="cls-2" points="927.45 1110.41 925.67 1110.41 925.67 1119.81 919.97 1119.81 919.97 1136.26 925.67 1136.26 925.67 1180.08 927.45 1180.08 927.45 1136.26 933.18 1136.26 933.18 1119.81 927.45 1119.81 927.45 1110.41"/>
      <polygon class="cls-2" points="855.36 1024.88 853.58 1024.88 853.58 1084.38 847.85 1084.38 847.85 1132.39 853.58 1132.39 853.58 1143.86 855.36 1143.86 855.36 1132.39 861.09 1132.39 861.09 1084.38 855.36 1084.38 855.36 1024.88"/>
      <polygon class="cls-2" points="1023.59 997.64 1021.81 997.64 1021.81 1029.49 1016.08 1029.49 1016.08 1055.75 1021.81 1055.75 1021.81 1067.75 1023.59 1067.75 1023.59 1055.75 1029.32 1055.75 1029.32 1029.49 1023.59 1029.49 1023.59 997.64"/>
      <polygon class="cls-2" points="1143.74 986.03 1141.97 986.03 1141.97 996.87 1136.24 996.87 1136.24 1008.57 1141.97 1008.57 1141.97 1033.89 1143.74 1033.89 1143.74 1008.57 1149.48 1008.57 1149.48 996.87 1143.74 996.87 1143.74 986.03"/>
      <polygon class="cls-2" points="679.62 1016.99 685.36 1016.99 685.36 1084.38 687.13 1084.38 687.13 1016.99 692.86 1016.99 692.86 948.54 679.62 948.54 679.62 1016.99"/>
      <polygon class="cls-2" points="615.04 889.03 613.24 889.03 613.24 900.08 607.53 900.08 607.53 993.03 613.24 993.03 613.24 1028.63 615.04 1028.63 615.04 993.03 620.74 993.03 620.74 900.08 615.04 900.08 615.04 889.03"/>
      <polygon class="cls-2" points="783.27 1001.84 781.47 1001.84 781.47 1048.69 775.76 1048.69 775.76 1101.9 781.47 1101.9 781.47 1143.62 783.27 1143.62 783.27 1101.9 788.97 1101.9 788.97 1048.69 783.27 1048.69 783.27 1001.84"/>
      <polygon class="cls-2" points="639.06 946.56 637.29 946.56 637.29 958.08 631.55 958.08 631.55 968.48 637.29 968.48 637.29 1069.88 639.06 1069.88 639.06 968.48 644.79 968.48 644.79 958.08 639.06 958.08 639.06 946.56"/>
      <polygon class="cls-2" points="727.69 985.05 727.69 1108.4 733.43 1108.4 733.43 1125.57 735.2 1125.57 735.2 1108.4 740.9 1108.4 740.9 985.05 733.43 985.05 727.69 985.05"/>
      <polygon class="cls-2" points="1071.65 982.16 1069.88 982.16 1069.88 994.24 1064.15 994.24 1064.15 1004.52 1069.88 1004.52 1069.88 1045.38 1071.65 1045.38 1071.65 1004.52 1077.36 1004.52 1077.36 994.24 1071.65 994.24 1071.65 982.16"/>
      <polygon class="cls-2" points="1499.52 1204.66 1497.72 1204.66 1497.72 1232.76 1492.02 1232.76 1492.02 1261.45 1497.72 1261.45 1497.72 1286.32 1499.52 1286.32 1499.52 1261.45 1505.22 1261.45 1505.22 1232.76 1499.52 1232.76 1499.52 1204.66"/>
      <polygon class="cls-2" points="1475.47 1176.95 1473.7 1176.95 1473.7 1200.44 1468 1200.44 1468 1246.79 1473.7 1246.79 1473.7 1259.32 1475.47 1259.32 1475.47 1246.79 1481.2 1246.79 1481.2 1200.44 1475.47 1200.44 1475.47 1176.95"/>
      <polygon class="cls-2" points="1443.95 1216.42 1449.68 1216.42 1449.68 1291.49 1451.45 1291.49 1451.45 1216.42 1457.16 1216.42 1457.16 1149.94 1443.95 1149.94 1443.95 1216.42"/>
      <polygon class="cls-2" points="1571.61 1198.54 1569.84 1198.54 1569.84 1213.02 1564.11 1213.02 1564.11 1274.71 1569.84 1274.71 1569.84 1310.11 1571.61 1310.11 1571.61 1274.71 1577.34 1274.71 1577.34 1213.02 1571.61 1213.02 1571.61 1198.54"/>
      <polygon class="cls-2" points="1191.81 955.89 1190.04 955.89 1190.04 966.32 1184.31 966.32 1184.31 1008.57 1190.04 1008.57 1190.04 1052.68 1191.81 1052.68 1191.81 1008.57 1197.55 1008.57 1197.55 966.32 1191.81 966.32 1191.81 955.89"/>
      <polygon class="cls-2" points="1619.68 1197.19 1619.68 1163.12 1617.91 1163.12 1617.91 1197.19 1612.18 1197.19 1612.18 1199.9 1617.91 1199.9 1617.91 1295.95 1619.68 1295.95 1619.68 1199.9 1625.38 1199.9 1625.38 1197.19 1619.68 1197.19"/>
      <polygon class="cls-2" points="1403.38 1145.66 1401.61 1145.66 1401.61 1172.78 1395.88 1172.78 1395.88 1216.74 1401.61 1216.74 1401.61 1242.68 1403.38 1242.68 1403.38 1216.74 1409.12 1216.74 1409.12 1172.78 1403.38 1172.78 1403.38 1145.66"/>
      <polygon class="cls-2" points="1215.86 997.55 1214.06 997.55 1214.06 1015.25 1208.36 1015.25 1208.36 1084.29 1214.06 1084.29 1214.06 1130.38 1215.86 1130.38 1215.86 1084.29 1221.57 1084.29 1221.57 1015.25 1215.86 1015.25 1215.86 997.55"/>
      <polygon class="cls-2" points="1259.21 1056.14 1257.4 1056.14 1257.4 1066.57 1251.7 1066.57 1251.7 1108.82 1257.4 1108.82 1257.4 1152.93 1259.21 1152.93 1259.21 1108.82 1264.91 1108.82 1264.91 1066.57 1259.21 1066.57 1259.21 1056.14"/>
      <polygon class="cls-2" points="1355.31 1094.78 1353.54 1094.78 1353.54 1102.47 1347.81 1102.47 1347.81 1148.08 1353.54 1148.08 1353.54 1208.15 1355.31 1208.15 1355.31 1148.08 1361.05 1148.08 1361.05 1102.47 1355.31 1102.47 1355.31 1094.78"/>
      <polygon class="cls-2" points="1307.25 1086.27 1305.47 1086.27 1305.47 1097.12 1299.77 1097.12 1299.77 1108.82 1305.47 1108.82 1305.47 1134.14 1307.25 1134.14 1307.25 1108.82 1312.98 1108.82 1312.98 1097.12 1307.25 1097.12 1307.25 1086.27"/>
    </g>
    <g>
      <polygon class="cls-3" points="975.52 1076.7 973.74 1076.7 973.74 1100.19 968.01 1100.19 968.01 1146.55 973.74 1146.55 973.74 1159.07 975.52 1159.07 975.52 1146.55 981.25 1146.55 981.25 1100.19 975.52 1100.19 975.52 1076.7"/>
      <polygon class="cls-3" points="951.5 1104.41 949.69 1104.41 949.69 1132.51 943.99 1132.51 943.99 1161.2 949.69 1161.2 949.69 1186.08 951.5 1186.08 951.5 1161.2 957.2 1161.2 957.2 1132.51 951.5 1132.51 951.5 1104.41"/>
      <polygon class="cls-3" points="1047.63 1015.46 1045.83 1015.46 1045.83 1042.55 1040.13 1042.55 1040.13 1086.54 1045.83 1086.54 1045.83 1112.45 1047.63 1112.45 1047.63 1086.54 1053.34 1086.54 1053.34 1042.55 1047.63 1042.55 1047.63 1015.46"/>
      <polygon class="cls-3" points="992.06 1116.17 997.76 1116.17 997.76 1191.25 999.57 1191.25 999.57 1116.17 1005.27 1116.17 1005.27 1049.7 992.06 1049.7 992.06 1116.17"/>
      <polygon class="cls-3" points="879.41 1098.3 877.6 1098.3 877.6 1112.78 871.9 1112.78 871.9 1174.47 877.6 1174.47 877.6 1209.86 879.41 1209.86 879.41 1174.47 885.11 1174.47 885.11 1112.78 879.41 1112.78 879.41 1098.3"/>
      <polygon class="cls-3" points="831.34 1059.65 829.53 1059.65 829.53 1097.24 823.83 1097.24 823.83 1099.95 829.53 1099.95 829.53 1141.4 831.34 1141.4 831.34 1099.95 837.04 1099.95 837.04 1097.24 831.34 1097.24 831.34 1059.65"/>
      <polygon class="cls-3" points="663.11 1050.91 661.31 1050.91 661.31 1057.17 655.6 1057.17 655.6 1093.19 661.31 1093.19 661.31 1136.88 663.11 1136.88 663.11 1093.19 668.81 1093.19 668.81 1057.17 663.11 1057.17 663.11 1050.91"/>
      <polygon class="cls-3" points="711.18 1008.57 709.38 1008.57 709.38 1031.35 703.67 1031.35 703.67 1090 709.38 1090 709.38 1141.4 711.18 1141.4 711.18 1090 716.88 1090 716.88 1031.35 711.18 1031.35 711.18 1008.57"/>
      <polygon class="cls-3" points="759.22 1064 757.45 1064 757.45 1125.21 751.74 1125.21 751.74 1143.86 757.45 1143.86 757.45 1151.83 759.22 1151.83 759.22 1143.86 764.95 1143.86 764.95 1125.21 759.22 1125.21 759.22 1064"/>
      <polygon class="cls-3" points="1095.67 994.54 1093.9 994.54 1093.9 1002.22 1088.2 1002.22 1088.2 1047.84 1093.9 1047.84 1093.9 1075.31 1095.67 1075.31 1095.67 1047.84 1101.41 1047.84 1101.41 1002.22 1095.67 1002.22 1095.67 994.54"/>
      <polygon class="cls-3" points="807.29 1045.83 805.51 1045.83 805.51 1099.57 799.81 1099.57 799.81 1136.21 805.51 1136.21 805.51 1178.69 807.29 1178.69 807.29 1136.21 813.02 1136.21 813.02 1099.57 807.29 1099.57 807.29 1045.83"/>
      <polygon class="cls-3" points="1523.54 1243.04 1521.77 1243.04 1521.77 1269.87 1516.04 1269.87 1516.04 1286.32 1521.77 1286.32 1521.77 1312.71 1523.54 1312.71 1523.54 1286.32 1529.27 1286.32 1529.27 1269.87 1523.54 1269.87 1523.54 1243.04"/>
      <polygon class="cls-3" points="1427.43 1184.54 1425.63 1184.54 1425.63 1216.42 1419.93 1216.42 1419.93 1242.68 1425.63 1242.68 1425.63 1254.68 1427.43 1254.68 1427.43 1242.68 1433.14 1242.68 1433.14 1216.42 1427.43 1216.42 1427.43 1184.54"/>
      <polygon class="cls-3" points="1547.59 1222.83 1545.79 1222.83 1545.79 1286.32 1540.09 1286.32 1540.09 1304.58 1553.29 1304.58 1553.29 1286.32 1547.59 1286.32 1547.59 1222.83"/>
      <polygon class="cls-3" points="1643.7 1265.11 1643.7 1232.73 1641.93 1232.73 1641.93 1265.11 1636.23 1265.11 1636.23 1301.74 1641.93 1301.74 1641.93 1365.59 1643.7 1365.59 1643.7 1301.74 1649.43 1301.74 1649.43 1265.11 1643.7 1265.11"/>
      <polygon class="cls-3" points="1119.72 975.07 1117.92 975.07 1117.92 1008.57 1112.22 1008.57 1112.22 1046.89 1117.92 1046.89 1117.92 1107.9 1119.72 1107.9 1119.72 1046.89 1125.43 1046.89 1125.43 1008.57 1119.72 1008.57 1119.72 975.07"/>
      <polygon class="cls-3" points="1595.66 1179.46 1593.86 1179.46 1593.86 1238.93 1588.16 1238.93 1588.16 1286.94 1593.86 1286.94 1593.86 1298.41 1595.66 1298.41 1595.66 1286.94 1601.36 1286.94 1601.36 1238.93 1595.66 1238.93 1595.66 1179.46"/>
      <polygon class="cls-3" points="1379.36 1172.78 1377.56 1172.78 1377.56 1190.98 1371.86 1190.98 1371.86 1206.43 1377.56 1206.43 1377.56 1267.89 1379.36 1267.89 1379.36 1206.43 1385.07 1206.43 1385.07 1190.98 1379.36 1190.98 1379.36 1172.78"/>
      <polygon class="cls-3" points="1331.29 1075.28 1329.49 1075.28 1329.49 1123.56 1323.79 1123.56 1323.79 1161.88 1329.49 1161.88 1329.49 1171.84 1331.29 1171.84 1331.29 1161.88 1337 1161.88 1337 1123.56 1331.29 1123.56 1331.29 1075.28"/>
      <polygon class="cls-3" points="1235.16 1062.11 1233.38 1062.11 1233.38 1072.86 1227.65 1072.86 1227.65 1114.76 1233.38 1114.76 1233.38 1142.71 1235.16 1142.71 1235.16 1114.76 1240.89 1114.76 1240.89 1072.86 1235.16 1072.86 1235.16 1062.11"/>
      <polygon class="cls-3" points="1167.79 962.19 1165.99 962.19 1165.99 1008.57 1160.29 1008.57 1160.29 1041.48 1165.99 1041.48 1165.99 1065.36 1167.79 1065.36 1167.79 1041.48 1173.5 1041.48 1173.5 1008.57 1167.79 1008.57 1167.79 962.19"/>
      <polygon class="cls-3" points="1283.23 1062.43 1281.45 1062.43 1281.45 1108.82 1275.72 1108.82 1275.72 1141.73 1281.45 1141.73 1281.45 1165.57 1283.23 1165.57 1283.23 1141.73 1288.93 1141.73 1288.93 1108.82 1283.23 1108.82 1283.23 1062.43"/>
    </g>
    <path class="cls-2" d="m1197.25,884.78v-43.55h-28.1v43.55h-20l34.04,41.48,34.04-41.48h-19.97Z"/>
    <path class="cls-3" d="m934.3,1246.53h18.7l-31.2-42.52-31.2,42.52h18.73v42.52h24.97v-42.52Z"/>
  </g>
</svg>