<svg xmlns="http://www.w3.org/2000/svg" xmlns:xlink="http://www.w3.org/1999/xlink" width="500" zoomAndPan="magnify" viewBox="0 0 375 374.999991" height="500" preserveAspectRatio="xMidYMid meet" version="1.0"><defs><clipPath id="08e899b75b"><path d="M 112.5 132 L 262.5 132 L 262.5 243 L 112.5 243 Z M 112.5 132 " clip-rule="nonzero"/></clipPath></defs><g clip-path="url(#08e899b75b)"><path fill="#ffffff" d="M 158.3125 134.269531 C 149.960938 136.054688 140.554688 139.863281 135.445312 143.675781 C 132.285156 145.945312 130.90625 147.890625 127.988281 153.972656 C 120.285156 169.945312 114.445312 193.136719 113.230469 212.59375 C 112.664062 221.027344 112.664062 221.109375 115.011719 224.433594 C 119.878906 231.566406 132.121094 238.460938 144.933594 241.378906 C 149.066406 242.351562 153.285156 243 154.335938 242.835938 C 155.636719 242.675781 157.742188 240.730469 160.582031 236.917969 C 163.09375 233.511719 165.363281 231.242188 166.257812 231.324219 C 166.988281 231.40625 170.472656 231.8125 173.960938 232.378906 C 182.066406 233.511719 192.933594 233.511719 201.039062 232.378906 C 204.527344 231.8125 208.011719 231.40625 208.742188 231.324219 C 209.636719 231.242188 211.90625 233.511719 214.417969 236.917969 C 217.257812 240.730469 219.363281 242.675781 220.664062 242.835938 C 221.714844 243 225.933594 242.351562 230.066406 241.378906 C 242.878906 238.460938 255.121094 231.566406 259.988281 224.433594 C 262.335938 221.109375 262.335938 221.027344 261.769531 212.757812 C 260.554688 193.136719 254.714844 170.109375 247.011719 153.972656 C 244.09375 147.890625 242.714844 145.945312 239.554688 143.675781 C 234.121094 139.703125 224.878906 136.054688 215.230469 134.027344 C 205.90625 132.164062 204.769531 132.40625 203.3125 136.785156 L 202.335938 139.539062 L 172.582031 139.539062 L 172.011719 137.351562 C 170.636719 132.242188 169.335938 132 158.3125 134.269531 Z M 224.390625 143.269531 C 233.148438 146.1875 237.363281 149.433594 240.527344 155.351562 C 247.582031 168.8125 253.988281 193.785156 255.285156 212.59375 L 255.851562 219.890625 L 251.636719 223.785156 C 246.6875 228.40625 238.257812 232.621094 229.257812 234.890625 L 222.769531 236.59375 L 220.175781 233.511719 C 218.714844 231.8125 217.5 230.027344 217.5 229.539062 C 217.5 229.136719 220.335938 227.511719 223.824219 226.136719 C 231.121094 223.054688 237.769531 218.433594 237.769531 216.40625 C 237.769531 214.703125 236.3125 213 234.769531 213 C 234.203125 213 231.769531 214.296875 229.417969 215.835938 C 224.066406 219.40625 216.851562 222.324219 207.933594 224.511719 C 197.796875 227.027344 177.203125 227.027344 167.066406 224.511719 C 158.148438 222.324219 150.933594 219.40625 145.582031 215.835938 C 143.230469 214.296875 140.796875 213 140.230469 213 C 138.6875 213 137.230469 214.703125 137.230469 216.40625 C 137.230469 218.433594 143.878906 223.054688 151.257812 226.136719 C 154.664062 227.511719 157.5 229.136719 157.5 229.539062 C 157.5 230.027344 156.285156 231.8125 154.824219 233.511719 L 152.230469 236.59375 L 145.742188 234.890625 C 136.742188 232.621094 128.3125 228.40625 123.363281 223.785156 L 119.230469 219.890625 L 119.714844 212.59375 C 121.09375 193.378906 127.742188 167.917969 134.878906 154.621094 C 136.742188 151.136719 138.285156 149.433594 141.527344 147.488281 C 146.714844 144.324219 156.363281 141 162.121094 140.269531 C 168.363281 139.539062 167.554688 141.164062 160.582031 143.269531 C 157.335938 144.242188 151.90625 146.433594 148.417969 148.214844 C 143.148438 150.890625 142.09375 151.703125 142.09375 153.40625 C 142.09375 157.136719 144.6875 157.378906 150.769531 154.378906 C 162.609375 148.460938 172.90625 146.1875 187.5 146.1875 C 202.257812 146.1875 210.285156 147.890625 223.335938 153.972656 C 229.257812 156.730469 230.636719 157.136719 231.6875 156.242188 C 232.335938 155.675781 232.90625 154.378906 232.90625 153.324219 C 232.90625 151.703125 231.769531 150.8125 226.582031 148.214844 C 223.09375 146.433594 217.664062 144.242188 214.417969 143.269531 C 208.90625 141.566406 207.933594 140.917969 209.066406 139.863281 C 209.636719 139.296875 217.90625 141.164062 224.390625 143.269531 Z M 224.390625 143.269531 " fill-opacity="1" fill-rule="nonzero"/></g><path fill="#ffffff" d="M 161.148438 179.269531 C 150.609375 183.972656 148.742188 199.136719 157.742188 207.082031 C 164.878906 213.324219 175.257812 210.488281 179.472656 201.242188 C 185.230469 188.59375 173.066406 174 161.148438 179.269531 Z M 170.3125 185.917969 C 174.6875 188.917969 175.742188 195.566406 172.664062 200.109375 C 169.175781 205.296875 163.664062 205.296875 160.175781 200.109375 C 156.039062 193.945312 159.851562 184.621094 166.417969 184.621094 C 167.554688 184.621094 169.335938 185.1875 170.3125 185.917969 Z M 170.3125 185.917969 " fill-opacity="1" fill-rule="nonzero"/><path fill="#ffffff" d="M 203.3125 179.269531 C 192.769531 183.972656 190.90625 199.136719 199.90625 207.082031 C 207.039062 213.324219 217.417969 210.488281 221.636719 201.242188 C 227.390625 188.59375 215.230469 174 203.3125 179.269531 Z M 212.472656 185.917969 C 216.851562 188.917969 217.90625 195.566406 214.824219 200.109375 C 211.335938 205.296875 205.824219 205.296875 202.335938 200.109375 C 198.203125 193.945312 202.011719 184.621094 208.582031 184.621094 C 209.714844 184.621094 211.5 185.1875 212.472656 185.917969 Z M 212.472656 185.917969 " fill-opacity="1" fill-rule="nonzero"/></svg>