<svg xmlns="http://www.w3.org/2000/svg" xmlns:xlink="http://www.w3.org/1999/xlink" width="500" zoomAndPan="magnify" viewBox="0 0 375 374.999991" height="500" preserveAspectRatio="xMidYMid meet" version="1.0"><defs><clipPath id="35a09fec33"><path d="M 123 182 L 200 182 L 200 262.5 L 123 262.5 Z M 123 182 " clip-rule="nonzero"/></clipPath><clipPath id="de123915e2"><path d="M 146 112.5 L 214 112.5 L 214 240 L 146 240 Z M 146 112.5 " clip-rule="nonzero"/></clipPath></defs><path fill="#ffffff" d="M 148.640625 176.476562 L 148.640625 176.238281 C 148.445312 175.886719 148.183594 175.589844 147.863281 175.347656 C 147.542969 175.105469 147.183594 174.9375 146.792969 174.847656 C 146.402344 174.753906 146.007812 174.742188 145.613281 174.816406 C 145.214844 174.886719 144.851562 175.035156 144.519531 175.261719 C 144.210938 175.472656 143.957031 175.730469 143.753906 176.042969 C 143.550781 176.351562 143.414062 176.691406 143.347656 177.054688 C 143.277344 177.417969 143.28125 177.78125 143.355469 178.144531 C 143.433594 178.507812 143.574219 178.84375 143.785156 179.152344 L 143.785156 179.390625 C 143.988281 179.703125 144.246094 179.964844 144.558594 180.171875 C 144.871094 180.378906 145.210938 180.515625 145.578125 180.585938 C 145.945312 180.65625 146.308594 180.652344 146.675781 180.570312 C 147.039062 180.492188 147.375 180.34375 147.679688 180.125 L 147.921875 180.125 C 148.207031 179.929688 148.445312 179.683594 148.632812 179.394531 C 148.824219 179.105469 148.953125 178.789062 149.019531 178.449219 C 149.085938 178.109375 149.085938 177.765625 149.023438 177.425781 C 148.957031 177.085938 148.832031 176.769531 148.640625 176.476562 Z M 148.640625 176.476562 " fill-opacity="1" fill-rule="nonzero"/><g clip-path="url(#35a09fec33)"><path fill="#ffffff" d="M 198.210938 249.5 C 197.980469 249.25 197.710938 249.050781 197.40625 248.90625 C 197.097656 248.757812 196.777344 248.671875 196.4375 248.648438 C 196.097656 248.628906 195.765625 248.667969 195.441406 248.773438 C 195.121094 248.878906 194.828125 249.042969 194.566406 249.261719 C 189.214844 252.769531 183.382812 255.042969 177.070312 256.078125 C 174.972656 256.367188 172.863281 256.527344 170.746094 256.558594 C 168.015625 256.566406 165.308594 256.308594 162.632812 255.78125 C 159.953125 255.25 157.351562 254.464844 154.828125 253.421875 C 152.304688 252.378906 149.910156 251.097656 147.640625 249.578125 C 145.371094 248.058594 143.269531 246.332031 141.34375 244.394531 C 139.371094 242.488281 137.613281 240.402344 136.0625 238.140625 C 134.515625 235.875 133.207031 233.480469 132.144531 230.949219 C 131.078125 228.421875 130.277344 225.8125 129.742188 223.121094 C 129.203125 220.429688 128.945312 217.710938 128.957031 214.964844 C 128.960938 212.480469 129.183594 210.019531 129.628906 207.574219 C 130.070312 205.128906 130.730469 202.746094 131.597656 200.417969 C 132.46875 198.09375 133.539062 195.863281 134.808594 193.730469 C 136.078125 191.59375 137.527344 189.589844 139.152344 187.714844 C 139.390625 187.46875 139.570312 187.191406 139.695312 186.875 C 139.824219 186.558594 139.886719 186.230469 139.886719 185.890625 C 139.886719 185.550781 139.824219 185.222656 139.695312 184.90625 C 139.570312 184.59375 139.390625 184.3125 139.152344 184.066406 C 139.027344 183.898438 138.882812 183.746094 138.71875 183.609375 C 138.554688 183.472656 138.378906 183.359375 138.191406 183.265625 C 138 183.171875 137.804688 183.097656 137.597656 183.050781 C 137.390625 183 137.183594 182.976562 136.972656 182.976562 C 136.757812 182.976562 136.550781 183 136.34375 183.050781 C 136.140625 183.097656 135.941406 183.171875 135.753906 183.265625 C 135.5625 183.359375 135.386719 183.472656 135.222656 183.609375 C 135.0625 183.746094 134.917969 183.898438 134.789062 184.066406 C 133.316406 185.777344 131.976562 187.585938 130.761719 189.492188 C 129.546875 191.394531 128.476562 193.375 127.546875 195.433594 C 126.617188 197.492188 125.835938 199.601562 125.207031 201.773438 C 124.578125 203.941406 124.105469 206.144531 123.792969 208.382812 C 123.476562 210.617188 123.324219 212.863281 123.328125 215.125 C 123.335938 217.382812 123.503906 219.628906 123.828125 221.863281 C 124.15625 224.097656 124.640625 226.296875 125.28125 228.464844 C 125.921875 230.628906 126.714844 232.738281 127.65625 234.789062 C 128.597656 236.84375 129.679688 238.816406 130.90625 240.714844 C 132.128906 242.613281 133.480469 244.414062 134.960938 246.117188 C 136.441406 247.820312 138.035156 249.410156 139.746094 250.886719 C 141.453125 252.359375 143.257812 253.707031 145.15625 254.925781 C 147.054688 256.140625 149.03125 257.21875 151.085938 258.152344 C 153.140625 259.085938 155.25 259.871094 157.414062 260.503906 C 159.578125 261.132812 161.777344 261.609375 164.011719 261.925781 C 166.246094 262.246094 168.488281 262.402344 170.746094 262.398438 C 173.1875 262.476562 175.617188 262.316406 178.03125 261.917969 C 181.609375 261.40625 185.078125 260.492188 188.445312 259.175781 C 191.808594 257.859375 194.980469 256.175781 197.957031 254.125 C 198.136719 253.996094 198.296875 253.84375 198.441406 253.679688 C 198.589844 253.511719 198.714844 253.332031 198.820312 253.136719 C 198.921875 252.941406 199.007812 252.734375 199.066406 252.523438 C 199.125 252.308594 199.160156 252.09375 199.171875 251.871094 C 199.183594 251.648438 199.171875 251.429688 199.132812 251.210938 C 199.097656 250.992188 199.035156 250.78125 198.953125 250.578125 C 198.867188 250.371094 198.761719 250.179688 198.632812 249.996094 C 198.507812 249.816406 198.363281 249.652344 198.199219 249.5 Z M 198.210938 249.5 " fill-opacity="1" fill-rule="nonzero"/></g><path fill="#ffffff" d="M 203.308594 240.9375 C 203.308594 241.179688 203.308594 241.179688 203.070312 241.179688 C 202.839844 241.488281 202.671875 241.832031 202.574219 242.207031 C 202.476562 242.582031 202.449219 242.960938 202.492188 243.347656 C 202.539062 243.734375 202.65625 244.097656 202.839844 244.4375 C 203.023438 244.777344 203.265625 245.074219 203.5625 245.320312 C 203.84375 245.597656 204.167969 245.804688 204.535156 245.945312 C 204.902344 246.082031 205.285156 246.140625 205.675781 246.117188 C 206.070312 246.09375 206.441406 245.992188 206.792969 245.8125 C 207.140625 245.632812 207.441406 245.386719 207.6875 245.082031 C 207.6875 244.839844 207.6875 244.839844 207.925781 244.585938 C 208.15625 244.277344 208.324219 243.933594 208.421875 243.5625 C 208.523438 243.1875 208.550781 242.808594 208.507812 242.425781 C 208.460938 242.042969 208.347656 241.679688 208.164062 241.339844 C 207.980469 241 207.742188 240.703125 207.445312 240.457031 L 207.207031 240.457031 C 206.917969 240.226562 206.59375 240.058594 206.238281 239.957031 C 205.882812 239.859375 205.523438 239.832031 205.15625 239.875 C 204.789062 239.921875 204.445312 240.035156 204.125 240.21875 C 203.804688 240.402344 203.53125 240.644531 203.308594 240.9375 Z M 203.308594 240.9375 " fill-opacity="1" fill-rule="nonzero"/><g clip-path="url(#de123915e2)"><path fill="#ffffff" d="M 210.609375 112.5 L 192.125 112.5 C 191.746094 112.523438 191.386719 112.617188 191.042969 112.773438 C 190.699219 112.929688 190.390625 113.140625 190.125 113.410156 C 189.855469 113.675781 189.644531 113.984375 189.488281 114.328125 C 189.332031 114.675781 189.242188 115.035156 189.214844 115.414062 L 189.214844 214.914062 C 189.210938 215.871094 189.128906 216.820312 188.972656 217.761719 C 188.816406 218.707031 188.589844 219.628906 188.289062 220.539062 C 187.992188 221.445312 187.621094 222.324219 187.183594 223.171875 C 186.746094 224.019531 186.246094 224.832031 185.679688 225.601562 C 185.117188 226.371094 184.496094 227.09375 183.820312 227.765625 C 183.140625 228.4375 182.414062 229.054688 181.640625 229.613281 C 180.867188 230.171875 180.054688 230.667969 179.203125 231.097656 C 178.351562 231.527344 177.472656 231.890625 176.5625 232.183594 C 174.445312 232.992188 172.257812 233.316406 169.996094 233.160156 C 169.421875 233.136719 168.847656 233.089844 168.273438 233.011719 C 167.703125 232.9375 167.136719 232.832031 166.574219 232.703125 C 166.011719 232.574219 165.457031 232.414062 164.910156 232.230469 C 164.359375 232.046875 163.824219 231.839844 163.296875 231.605469 C 162.769531 231.371094 162.253906 231.109375 161.75 230.828125 C 161.25 230.542969 160.761719 230.234375 160.285156 229.90625 C 159.8125 229.574219 159.355469 229.222656 158.917969 228.847656 C 158.476562 228.476562 158.054688 228.082031 157.652344 227.667969 C 157.25 227.253906 156.867188 226.820312 156.507812 226.367188 C 156.144531 225.917969 155.808594 225.449219 155.492188 224.96875 C 155.175781 224.484375 154.878906 223.988281 154.613281 223.476562 C 154.34375 222.964844 154.097656 222.441406 153.878906 221.90625 C 153.660156 221.375 153.464844 220.828125 153.296875 220.277344 C 153.128906 219.722656 152.988281 219.164062 152.875 218.597656 C 152.757812 218.03125 152.671875 217.460938 152.613281 216.886719 C 152.550781 216.3125 152.519531 215.734375 152.511719 215.15625 C 152.472656 213.945312 152.550781 212.746094 152.75 211.554688 C 152.953125 210.359375 153.269531 209.199219 153.703125 208.070312 C 154.136719 206.941406 154.683594 205.867188 155.332031 204.847656 C 155.984375 203.828125 156.730469 202.886719 157.574219 202.019531 C 159.371094 200.257812 161.425781 198.894531 163.746094 197.925781 C 166.066406 196.957031 168.484375 196.453125 170.996094 196.417969 C 172.90625 196.488281 174.769531 196.8125 176.589844 197.394531 C 177.140625 197.601562 177.703125 197.636719 178.277344 197.503906 C 178.851562 197.375 179.34375 197.097656 179.753906 196.671875 C 180.207031 196.101562 180.449219 195.453125 180.472656 194.722656 L 180.472656 170.878906 C 180.480469 170.53125 180.425781 170.191406 180.3125 169.863281 C 180.195312 169.53125 180.027344 169.234375 179.804688 168.964844 C 179.582031 168.699219 179.316406 168.476562 179.015625 168.304688 C 178.710938 168.132812 178.386719 168.019531 178.042969 167.964844 C 175.613281 167.722656 173.1875 167.46875 170.996094 167.46875 C 165.832031 167.386719 160.816406 168.203125 155.941406 169.914062 C 155.75 169.957031 155.570312 170.019531 155.394531 170.101562 C 155.21875 170.1875 155.054688 170.289062 154.902344 170.410156 C 154.75 170.53125 154.613281 170.667969 154.492188 170.820312 C 154.371094 170.976562 154.269531 171.140625 154.1875 171.316406 C 154.105469 171.492188 154.042969 171.675781 154 171.867188 C 153.960938 172.058594 153.945312 172.25 153.949219 172.445312 C 153.953125 172.640625 153.976562 172.832031 154.027344 173.023438 C 154.074219 173.210938 154.144531 173.390625 154.234375 173.5625 C 154.375 173.695312 154.457031 173.855469 154.472656 174.046875 C 154.625 174.320312 154.816406 174.5625 155.046875 174.777344 C 155.277344 174.992188 155.53125 175.164062 155.816406 175.292969 C 156.101562 175.425781 156.398438 175.507812 156.710938 175.542969 C 157.023438 175.578125 157.332031 175.566406 157.636719 175.503906 C 161.886719 174.039062 166.261719 173.308594 170.757812 173.3125 C 172.058594 173.261719 173.355469 173.34375 174.640625 173.5625 L 174.640625 191.074219 C 173.363281 190.777344 172.066406 190.617188 170.757812 190.589844 C 169.980469 190.59375 169.203125 190.632812 168.429688 190.710938 C 167.65625 190.789062 166.890625 190.902344 166.128906 191.054688 C 165.367188 191.207031 164.613281 191.394531 163.867188 191.621094 C 163.125 191.84375 162.390625 192.105469 161.671875 192.398438 C 160.953125 192.695312 160.25 193.023438 159.5625 193.386719 C 158.875 193.75 158.207031 194.144531 157.558594 194.570312 C 156.90625 195 156.28125 195.457031 155.675781 195.945312 C 155.070312 196.433594 154.488281 196.949219 153.933594 197.492188 C 153.378906 198.039062 152.847656 198.605469 152.347656 199.203125 C 151.847656 199.796875 151.375 200.414062 150.933594 201.054688 C 150.492188 201.695312 150.082031 202.355469 149.707031 203.035156 C 149.328125 203.714844 148.984375 204.414062 148.671875 205.125 C 148.363281 205.839844 148.085938 206.566406 147.84375 207.308594 C 147.605469 208.046875 147.398438 208.796875 147.230469 209.554688 C 147.0625 210.316406 146.929688 211.082031 146.835938 211.855469 C 146.738281 212.628906 146.683594 213.402344 146.664062 214.179688 C 146.640625 214.957031 146.660156 215.734375 146.714844 216.511719 C 146.769531 217.289062 146.859375 218.058594 146.988281 218.828125 C 147.117188 219.59375 147.28125 220.355469 147.484375 221.105469 C 147.6875 221.859375 147.921875 222.597656 148.195312 223.328125 C 148.46875 224.054688 148.777344 224.769531 149.121094 225.46875 C 149.460938 226.167969 149.835938 226.847656 150.242188 227.511719 C 150.652344 228.171875 151.089844 228.816406 151.558594 229.4375 C 152.027344 230.054688 152.523438 230.652344 153.050781 231.226562 C 153.578125 231.796875 154.132812 232.34375 154.710938 232.863281 C 155.289062 233.382812 155.890625 233.871094 156.519531 234.332031 C 157.144531 234.792969 157.792969 235.222656 158.457031 235.621094 C 159.125 236.019531 159.8125 236.386719 160.515625 236.71875 C 161.21875 237.050781 161.933594 237.347656 162.664062 237.609375 C 163.398438 237.875 164.140625 238.101562 164.894531 238.292969 C 165.644531 238.484375 166.40625 238.640625 167.175781 238.757812 C 167.945312 238.875 168.714844 238.957031 169.492188 239 C 172.578125 239.191406 175.574219 238.769531 178.488281 237.730469 C 179.683594 237.347656 180.84375 236.871094 181.964844 236.304688 C 183.085938 235.734375 184.15625 235.082031 185.175781 234.34375 C 186.191406 233.605469 187.144531 232.792969 188.035156 231.902344 C 188.925781 231.011719 189.738281 230.058594 190.476562 229.039062 C 191.214844 228.019531 191.867188 226.949219 192.4375 225.828125 C 193.003906 224.703125 193.480469 223.542969 193.867188 222.347656 C 194.253906 221.148438 194.539062 219.925781 194.730469 218.683594 C 194.921875 217.4375 195.015625 216.1875 195.011719 214.929688 L 195.25 179.65625 L 195.25 118.339844 L 210.304688 118.339844 C 210.589844 118.351562 210.871094 118.3125 211.140625 118.222656 C 211.414062 118.136719 211.664062 118 211.886719 117.820312 C 212.109375 117.640625 212.292969 117.429688 212.441406 117.183594 C 212.585938 116.9375 212.683594 116.671875 212.734375 116.390625 L 212.988281 115.414062 C 213.101562 114.695312 212.9375 114.050781 212.492188 113.476562 C 212.28125 113.152344 212 112.90625 211.65625 112.730469 C 211.308594 112.558594 210.945312 112.480469 210.558594 112.5 Z M 210.609375 112.5 " fill-opacity="1" fill-rule="nonzero"/></g><path fill="#ffffff" d="M 254.585938 163.101562 L 254.585938 151.699219 C 254.617188 151.289062 254.5625 150.894531 254.429688 150.507812 C 254.292969 150.125 254.085938 149.78125 253.808594 149.484375 C 253.53125 149.183594 253.207031 148.953125 252.835938 148.789062 C 252.460938 148.625 252.070312 148.542969 251.664062 148.542969 C 250.675781 148.539062 249.691406 148.496094 248.710938 148.40625 C 247.730469 148.316406 246.753906 148.183594 245.785156 148.003906 C 244.8125 147.828125 243.851562 147.609375 242.902344 147.34375 C 241.953125 147.082031 241.015625 146.777344 240.089844 146.433594 C 239.167969 146.085938 238.261719 145.699219 237.371094 145.273438 C 236.484375 144.847656 235.617188 144.378906 234.769531 143.875 C 233.921875 143.371094 233.097656 142.832031 232.296875 142.253906 C 231.496094 141.675781 230.726562 141.0625 229.980469 140.414062 C 229.234375 139.769531 228.519531 139.089844 227.835938 138.378906 C 227.152344 137.667969 226.5 136.929688 225.882812 136.160156 C 225.261719 135.390625 224.679688 134.597656 224.128906 133.777344 C 223.582031 132.957031 223.070312 132.113281 222.597656 131.246094 C 222.125 130.378906 221.691406 129.496094 221.296875 128.589844 C 220.902344 127.683594 220.550781 126.765625 220.238281 125.828125 C 219.925781 124.890625 219.652344 123.941406 219.425781 122.980469 C 219.199219 122.023438 219.011719 121.054688 218.871094 120.074219 C 218.617188 119.355469 218.378906 118.617188 217.605469 118.378906 C 217.355469 118.117188 217.054688 117.941406 216.703125 117.851562 C 216.351562 117.761719 216.003906 117.773438 215.65625 117.882812 L 214.683594 118.136719 C 214.386719 118.234375 214.121094 118.378906 213.878906 118.574219 C 213.636719 118.769531 213.4375 119.003906 213.28125 119.269531 C 213.125 119.539062 213.019531 119.828125 212.96875 120.132812 C 212.921875 120.441406 212.925781 120.746094 212.988281 121.050781 C 213.613281 125.246094 214.882812 129.234375 216.792969 133.019531 C 218.703125 136.804688 221.15625 140.191406 224.160156 143.183594 C 225.792969 144.804688 227.558594 146.269531 229.453125 147.578125 C 231.34375 148.886719 233.339844 150.019531 235.433594 150.976562 C 237.527344 151.929688 239.6875 152.695312 241.917969 153.265625 C 244.144531 153.839844 246.40625 154.210938 248.703125 154.382812 C 248.703125 158.753906 248.941406 167.269531 248.941406 171.890625 C 242.265625 171.65625 235.867188 170.195312 229.75 167.507812 C 225.226562 165.609375 221.011719 163.175781 217.097656 160.210938 C 216.6875 159.867188 216.214844 159.671875 215.683594 159.628906 C 215.148438 159.582031 214.652344 159.699219 214.1875 159.96875 C 213.707031 160.191406 213.3125 160.519531 213.003906 160.953125 C 212.699219 161.390625 212.523438 161.871094 212.480469 162.402344 L 212.480469 215.195312 C 212.503906 220.949219 211.390625 226.472656 209.140625 231.765625 C 208.96875 232.074219 208.859375 232.402344 208.816406 232.75 C 208.769531 233.101562 208.792969 233.449219 208.886719 233.789062 C 208.976562 234.128906 209.128906 234.441406 209.339844 234.722656 C 209.554688 235.003906 209.8125 235.234375 210.117188 235.414062 C 210.296875 235.53125 210.488281 235.628906 210.691406 235.707031 C 210.894531 235.78125 211.101562 235.835938 211.3125 235.867188 C 211.527344 235.902344 211.742188 235.910156 211.957031 235.894531 C 212.175781 235.878906 212.386719 235.84375 212.59375 235.78125 C 212.800781 235.722656 213 235.640625 213.191406 235.539062 C 213.378906 235.433594 213.558594 235.3125 213.722656 235.171875 C 213.886719 235.03125 214.03125 234.875 214.164062 234.703125 C 214.292969 234.527344 214.402344 234.34375 214.492188 234.148438 C 217.117188 228.085938 218.492188 221.75 218.617188 215.144531 L 218.378906 167.953125 C 221.195312 169.910156 224.191406 171.53125 227.371094 172.816406 C 235.152344 176.023438 243.25 177.644531 251.664062 177.679688 C 252.496094 177.75 253.226562 177.503906 253.851562 176.945312 C 254.382812 176.3125 254.707031 175.585938 254.824219 174.769531 Z M 254.585938 163.101562 " fill-opacity="1" fill-rule="nonzero"/></svg>