<svg xmlns="http://www.w3.org/2000/svg" xmlns:xlink="http://www.w3.org/1999/xlink" width="500" zoomAndPan="magnify" viewBox="0 0 375 374.999991" height="500" preserveAspectRatio="xMidYMid meet" version="1.0"><defs><clipPath id="dba2829436"><path d="M 112.5 131.71875 L 262.5 131.71875 L 262.5 243.46875 L 112.5 243.46875 Z M 112.5 131.71875 " clip-rule="nonzero"/></clipPath></defs><g clip-path="url(#dba2829436)"><path fill="#ffffff" d="M 258.316406 150.988281 C 256.929688 143.324219 250.324219 137.738281 242.65625 135.996094 C 231.183594 133.558594 209.949219 131.816406 186.972656 131.816406 C 164.011719 131.816406 142.4375 133.558594 130.949219 135.996094 C 123.292969 137.738281 116.671875 142.96875 115.285156 150.988281 C 113.886719 159.703125 112.5 171.90625 112.5 187.59375 C 112.5 203.28125 113.886719 215.484375 115.625 224.199219 C 117.027344 231.863281 123.632812 237.449219 131.289062 239.191406 C 143.46875 241.628906 164.351562 243.371094 187.324219 243.371094 C 210.300781 243.371094 231.183594 241.628906 243.363281 239.191406 C 251.019531 237.449219 257.625 232.21875 259.023438 224.199219 C 260.410156 215.484375 262.152344 202.925781 262.503906 187.59375 C 261.796875 171.90625 260.058594 159.703125 258.316406 150.988281 Z M 168.183594 211.996094 L 168.183594 163.191406 L 210.640625 187.59375 Z M 168.183594 211.996094 " fill-opacity="1" fill-rule="nonzero"/></g></svg>